<svg width="240" height="362" viewBox="0 0 240 362" fill="none" xmlns="http://www.w3.org/2000/svg">
<path d="M48.9226 31.0833C49.3028 31.2417 49.3979 31.21 49.2394 30.9248C49.0704 30.6713 49.1444 30.608 49.4612 30.7347C49.8414 30.8931 49.9048 39.1947 49.9365 157.919L48.9859 160.708C48.479 162.229 47.6552 165.175 47.1165 167.267C46.6096 169.358 45.7541 173.287 45.2154 175.98C44.7084 178.673 43.8213 183.458 43.2826 186.595C42.7756 189.731 41.7617 195.942 41.0329 200.378C40.3359 204.814 39.7022 208.521 39.6071 208.616C39.5437 208.711 39.6388 208.996 39.8289 209.249C40.019 209.503 39.5437 209.028 38.7199 208.141C37.9278 207.285 37.2624 206.715 37.2624 206.873C37.2624 207.032 35.9316 205.827 34.284 204.18C32.6364 202.532 31.3056 201.075 31.3373 200.948C31.3689 200.821 30.8303 200.188 30.1015 199.522C29.4045 198.857 29.0559 198.477 29.3411 198.635C29.6263 198.793 29.151 198.255 28.2638 197.399C27.3766 196.544 26.933 196.037 27.2815 196.259C27.6301 196.48 27.2815 196.037 26.4894 195.276C25.6973 194.548 25.3487 194.104 25.6973 194.357C26.0458 194.579 25.7607 194.199 25.0636 193.565C24.3665 192.9 24.0813 192.551 24.4299 192.805C25.0636 193.248 25.0636 193.248 24.4616 192.456C24.113 192.013 23.4159 191.252 22.8773 190.745C22.3386 190.238 22.1168 189.953 22.3703 190.048C22.6238 190.175 22.4971 189.985 22.0535 189.605C21.6099 189.256 21.4198 188.939 21.5782 188.939C21.7683 188.939 21.5465 188.654 21.1029 188.306C20.6593 187.957 20.5326 187.735 20.7861 187.862C21.0396 187.989 20.9128 187.767 20.4692 187.387C20.0256 187.006 19.8989 186.785 20.1524 186.911C20.4058 187.038 20.2791 186.816 19.8355 186.436C19.3919 186.056 19.2652 185.834 19.5187 185.961C19.7721 186.088 19.6454 185.866 19.2018 185.517C18.7582 185.169 18.5681 184.852 18.7265 184.852C18.9166 184.852 18.7582 184.63 18.4097 184.345C18.0611 184.091 17.9978 183.933 18.2512 184.06C18.5047 184.186 18.378 183.965 17.9344 183.584C17.4908 183.204 17.3641 182.982 17.6175 183.109C18.0295 183.299 18.0295 183.268 17.6175 182.887C17.3641 182.666 17.1106 182.254 17.0472 182C16.9838 181.747 16.6353 181.271 16.2551 180.955C15.8749 180.638 15.7481 180.448 15.9699 180.543C16.2551 180.701 16.2868 180.574 16.0333 180.099C15.8749 179.751 15.5897 179.465 15.3996 179.465C15.2411 179.465 14.956 179.18 14.7659 178.832C14.5124 178.356 14.5441 178.23 14.8609 178.388C15.051 178.483 14.9877 178.388 14.7025 178.135C14.3856 177.913 14.2272 177.628 14.354 177.501C14.449 177.342 14.354 177.247 14.1322 177.247C13.9104 177.247 13.8153 177.152 13.9104 177.026C14.0371 176.867 13.8787 176.582 13.5618 176.36C13.2767 176.107 13.2133 176.012 13.4351 176.107C13.6886 176.233 13.6886 176.012 13.34 175.346C13.0866 174.839 12.738 174.396 12.5479 174.396C12.3895 174.396 12.2944 174.237 12.3895 174.079C12.4845 173.92 12.4212 173.762 12.2311 173.762C12.0726 173.762 11.9776 173.604 12.0726 173.445C12.1677 173.287 12.1043 173.128 11.9142 173.128C11.7558 173.128 11.6607 172.97 11.7558 172.811C11.8508 172.653 11.7875 172.495 11.5973 172.495C11.4389 172.495 11.3439 172.336 11.4389 172.178C11.534 172.019 11.4706 171.861 11.2805 171.861C11.1221 171.861 11.027 171.639 11.1221 171.386C11.2171 171.132 11.0587 170.847 10.8052 170.752C10.4884 170.646 10.4039 170.414 10.5517 170.055C10.7102 169.706 10.6785 169.58 10.4884 169.706C10.2982 169.833 9.9814 169.58 9.79129 169.168C9.56949 168.724 9.44275 168.217 9.5378 168.059C9.63286 167.9 9.50612 167.393 9.31601 166.95C9.09421 166.538 8.77736 166.284 8.58725 166.411C8.39713 166.538 8.36545 166.411 8.52388 166.094C8.65062 165.777 8.61893 165.524 8.42882 165.524C8.23871 165.524 8.20702 165.27 8.33376 164.985C8.49219 164.573 8.46051 164.478 8.17534 164.668C7.92186 164.816 7.84792 164.732 7.95354 164.415C8.0486 164.161 7.98523 163.94 7.79511 163.94C7.605 163.94 7.57332 163.686 7.70006 163.401C7.85849 162.989 7.8268 162.894 7.54163 163.084C7.28815 163.232 7.21422 163.147 7.31984 162.831C7.41489 162.577 7.35152 162.355 7.16141 162.355C6.9713 162.355 6.93961 162.102 7.06635 161.817C7.25647 161.373 7.22478 161.31 6.84456 161.563C6.49602 161.817 6.46433 161.753 6.68613 161.088C6.87624 160.518 6.87624 160.359 6.59107 160.549C6.30591 160.708 6.27422 160.581 6.43265 160.074C6.62276 159.472 6.55939 159.409 6.21085 159.662C5.86231 159.916 5.83063 159.82 6.05243 159.187C6.27422 158.553 6.24254 158.458 5.894 158.711C5.54546 158.965 5.51378 158.87 5.73557 158.236C5.95737 157.603 5.92568 157.507 5.57715 157.761C5.22861 158.014 5.19692 157.919 5.41872 157.286C5.64052 156.652 5.60883 156.557 5.26029 156.81C4.91176 157.064 4.88007 156.969 5.0385 156.43C5.16524 156.018 5.13355 155.701 4.94344 155.701C4.78502 155.701 4.68996 155.48 4.78502 155.226C4.88007 154.973 4.8167 154.751 4.62659 154.751C4.43648 154.751 4.40479 154.434 4.53153 154.054C4.68996 153.483 4.65827 153.388 4.30974 153.642C3.9612 153.895 3.89783 153.8 4.08794 153.103C4.24637 152.438 4.21468 152.279 3.92951 152.47C3.64435 152.628 3.64435 152.469 3.83446 151.899C4.02457 151.329 4.02457 151.17 3.7394 151.361C3.45423 151.519 3.42255 151.361 3.58098 150.727C3.77109 149.998 3.70772 149.903 3.35918 150.156C3.01064 150.41 2.94727 150.315 3.13738 149.618C3.29581 148.952 3.26412 148.794 2.97896 148.984C2.69379 149.143 2.6621 148.984 2.82053 148.35C2.97896 147.717 2.94727 147.527 2.6621 147.717C2.40862 147.875 2.37694 147.653 2.56705 146.83C2.75716 146.006 2.72547 145.784 2.47199 145.974C2.18682 146.132 2.15514 145.942 2.31357 145.34C2.50368 144.612 2.44031 144.516 2.09177 144.77C1.74323 145.023 1.71155 144.897 1.93334 143.978C2.15514 143.059 2.12345 142.932 1.77492 143.186C1.42638 143.439 1.39469 143.312 1.55312 142.489C1.67986 141.855 1.64817 141.443 1.45806 141.443C1.26795 141.443 1.23627 140.968 1.36301 140.271C1.52143 139.383 1.48975 139.13 1.20458 139.32C0.919414 139.479 0.856043 139.13 0.982784 137.894C1.10953 136.627 1.07784 136.373 0.824358 136.849C0.602561 137.324 0.570876 137.007 0.729302 135.74C0.887729 134.441 0.824358 134.06 0.570876 134.25C0.285709 134.409 0.222338 133.934 0.349079 132.349C0.444135 131.145 0.41245 130.448 0.285709 130.733C0.127282 131.05 0.0322266 127.882 0.0322266 123.699C0.0322266 119.517 0.127282 116.38 0.285709 116.665C0.41245 116.95 0.444135 116.095 0.349079 114.764C0.222338 112.895 0.285709 112.356 0.570876 112.546C0.856043 112.704 0.887729 112.356 0.729302 111.12C0.570876 109.853 0.602561 109.504 0.887729 109.694C1.1729 109.853 1.20458 109.599 1.04615 108.744C0.887729 107.857 0.919414 107.603 1.20458 107.793C1.48975 107.952 1.52143 107.698 1.36301 106.843C1.23627 106.114 1.26795 105.639 1.45806 105.639C1.64817 105.639 1.67986 105.227 1.55312 104.625C1.39469 103.769 1.42638 103.643 1.77492 103.896C2.12345 104.149 2.15514 104.023 1.93334 103.104C1.71155 102.185 1.74323 102.058 2.09177 102.312C2.47199 102.565 2.50368 102.438 2.31357 101.615C2.15514 100.854 2.18682 100.632 2.47199 100.823C2.72547 100.981 2.78884 100.759 2.59873 99.9353C2.40862 99.0798 2.44031 98.9214 2.72547 99.3016C3.01064 99.6818 3.04233 99.5551 2.91559 98.763C2.78884 98.0025 2.82053 97.7807 3.1057 97.9709C3.39086 98.1293 3.42255 97.9709 3.26412 97.3372C3.1057 96.6718 3.13738 96.5133 3.42255 96.7034C3.70772 96.8619 3.7394 96.7034 3.58098 96.0697C3.42255 95.4044 3.45423 95.2459 3.7394 95.436C4.02457 95.5945 4.05625 95.436 3.89783 94.8023C3.7394 94.1369 3.77109 93.9785 4.05625 94.1686C4.34142 94.3271 4.34142 94.1686 4.15131 93.5983C3.9612 93.0279 3.9612 92.8695 4.24637 93.0596C4.53153 93.2181 4.56322 93.0596 4.40479 92.4259C4.21468 91.6972 4.27805 91.6021 4.62659 91.8556C4.97513 92.1091 5.00681 92.014 4.78502 91.3803C4.56322 90.7466 4.5949 90.6516 4.94344 90.905C5.29198 91.1585 5.32366 91.0635 5.16524 90.5248C5.0385 90.1129 5.07018 89.7961 5.26029 89.7961C5.45041 89.7961 5.48209 89.4792 5.35535 89.099C5.19692 88.5286 5.22861 88.4336 5.57715 88.6871C5.92568 88.9406 5.95737 88.8455 5.73557 88.2118C5.51378 87.5781 5.54546 87.483 5.894 87.7365C6.24254 87.99 6.27422 87.8949 6.05243 87.2612C5.83063 86.6275 5.86231 86.5325 6.21085 86.786C6.55939 87.0394 6.59107 86.9444 6.36928 86.3107C6.14748 85.677 6.17917 85.5819 6.5277 85.8354C6.87624 86.0889 6.90793 85.9938 6.68613 85.3601C6.46433 84.6947 6.49602 84.6314 6.84456 84.8848C7.22478 85.1383 7.25647 85.0749 7.06635 84.663C6.93961 84.3462 6.90793 83.8709 7.00298 83.6174C7.09804 83.3323 7.31984 83.2372 7.54163 83.3956C7.8268 83.5541 7.8268 83.3956 7.63669 82.8253C7.41489 82.1599 7.44658 82.0965 7.79511 82.35C8.17534 82.6035 8.20702 82.5401 8.01691 82.1282C7.89017 81.8114 7.92186 81.5579 8.11197 81.5579C8.30208 81.5579 8.33376 81.3044 8.20702 81.0192C8.01691 80.5756 8.0486 80.5123 8.42882 80.7658C8.80904 81.0192 8.84073 80.9559 8.65062 80.544C8.52388 80.2271 8.55556 79.9736 8.74567 79.9736C8.93578 79.9736 8.99915 79.8152 8.9041 79.6568C8.80904 79.4983 8.80904 79.1181 8.9041 78.8646C8.99915 78.5795 9.22095 78.4844 9.44275 78.6428C9.72792 78.8013 9.7596 78.7062 9.60117 78.326C9.47443 78.0091 9.50612 77.7557 9.69623 77.7557C9.88634 77.7557 9.94971 77.5972 9.85466 77.4388C9.7596 77.2804 9.85466 77.1219 10.0131 77.1219C10.2032 77.1219 10.2349 76.8685 10.1081 76.5833C9.94971 76.1714 9.9814 76.0763 10.2666 76.2664C10.4884 76.3932 10.7102 76.2981 10.8052 76.013C10.9003 75.7595 10.8686 75.3476 10.7418 75.1575C10.5517 74.8406 10.6151 74.8406 10.9636 75.0624C11.3439 75.3159 11.3755 75.2525 11.1854 74.8406C11.027 74.4287 11.0904 74.3336 11.3439 74.5238C11.629 74.6822 11.6607 74.5871 11.5023 74.2069C11.3439 73.795 11.4072 73.6999 11.6607 73.89C11.9459 74.0485 11.9776 73.9534 11.8191 73.5732C11.6924 73.2247 11.7241 73.0662 11.9142 73.1613C12.1043 73.2563 12.2944 73.0979 12.3895 72.8444C12.4845 72.591 12.4845 72.2107 12.3895 72.0523C12.2944 71.8939 12.3895 71.7355 12.5479 71.7355C12.738 71.7355 13.0866 71.2919 13.34 70.7849C13.6886 70.1195 13.6886 69.8977 13.4351 70.0244C13.2133 70.1195 13.2767 70.0244 13.5618 69.771C13.8787 69.5492 14.0054 69.2323 13.8787 69.1056C13.7519 68.9788 13.847 68.8838 14.0688 68.8838C14.2589 68.8838 14.3856 68.7254 14.2906 68.5669C14.1955 68.4085 14.2906 68.2501 14.449 68.2501C14.6391 68.2501 14.9243 67.9649 15.0827 67.6164C15.3362 67.1411 15.3045 67.046 15.0194 67.2045C14.7976 67.2995 14.9877 67.0143 15.4946 66.5707C15.9699 66.0955 16.3501 65.6519 16.3501 65.5568C16.3501 65.4618 16.16 65.4935 15.9699 65.5885C15.7481 65.6836 15.8432 65.5251 16.1917 65.2717C16.5402 64.9865 16.6987 64.7647 16.5086 64.7647C16.3501 64.7647 16.4769 64.5429 16.8254 64.2577C17.174 64.0042 17.2373 63.8458 16.9838 63.9726C16.7304 64.0993 16.8571 63.8775 17.3007 63.4973C17.7443 63.1171 17.871 62.8953 17.6175 63.022C17.3641 63.1487 17.4274 62.9903 17.776 62.7368C18.1245 62.4517 18.2829 62.2299 18.0928 62.2299C17.9344 62.1982 18.0295 62.0714 18.3463 61.913C18.6315 61.7229 19.0434 61.311 19.2018 60.9625C19.4553 60.4872 19.4236 60.3604 19.1384 60.5189C18.9166 60.6139 19.1068 60.3921 19.5503 59.9802C19.9939 59.5683 20.5643 58.9346 20.8178 58.6178C21.198 58.0791 21.198 58.0157 20.7861 58.2375C20.5326 58.3643 20.6593 58.1742 21.1029 57.7939C21.5465 57.4137 21.6733 57.1919 21.4198 57.3187C21.1663 57.4454 21.3881 57.1602 21.8951 56.685C22.4337 56.2414 22.6238 55.9562 22.3703 56.0512C22.1168 56.178 22.2436 55.9562 22.6872 55.5443C23.1308 55.1324 23.3526 54.8472 23.1625 54.9423C22.9724 55.0373 23.1941 54.7522 23.6377 54.3402C24.0813 53.9283 24.2081 53.7065 23.9546 53.8333C23.7011 53.96 23.9229 53.6432 24.4299 53.1362C24.9685 52.6609 25.1903 52.3758 24.9052 52.5342C24.6517 52.6926 25.0002 52.2807 25.729 51.5836C26.426 50.9182 26.7746 50.5063 26.4894 50.6648C26.2359 50.8549 26.6478 50.3479 27.44 49.5875C28.2321 48.827 28.5806 48.3834 28.2321 48.6052C27.8836 48.827 28.2321 48.4151 29.0242 47.718C29.8164 46.9893 30.3233 46.3872 30.1332 46.3872C29.9748 46.3872 31.0204 45.1832 32.5096 43.7257C33.9988 42.2365 35.3296 41.0641 35.4563 41.0958C35.5831 41.1275 36.2802 40.5255 37.0089 39.7333C37.706 38.9412 38.1179 38.5927 37.8961 38.9412C37.6743 39.2897 38.1179 38.9412 38.8467 38.1491C39.5754 37.3569 40.0824 36.945 39.9557 37.1985C39.8289 37.452 40.1458 37.2302 40.6527 36.7232C41.128 36.1846 41.4765 35.8994 41.3815 36.0895C41.2864 36.2796 41.635 35.9945 42.1102 35.4558C42.6172 34.9489 42.9341 34.7271 42.8073 34.9805C42.6806 35.234 42.9024 35.1073 43.2826 34.6637C43.6628 34.2201 43.8846 34.0934 43.7579 34.3468C43.6628 34.6003 43.948 34.3785 44.3916 33.8716C44.8669 33.3646 45.152 33.1428 45.0253 33.3963C44.8985 33.6498 45.1203 33.523 45.5006 33.0794C45.8808 32.6358 46.1026 32.5091 45.9758 32.7626C45.8491 33.0161 46.0709 32.8893 46.4511 32.4457C46.8314 32.0021 47.0215 31.8437 46.8947 32.0655C46.7046 32.414 46.7997 32.4457 47.3383 32.1606C47.7185 31.9704 48.0354 31.7486 48.0354 31.6536C48.0354 31.5585 47.877 31.5902 47.7185 31.717C47.5284 31.812 47.4651 31.7486 47.5601 31.5585C47.6552 31.3367 47.9403 31.2734 48.2889 31.4001C48.6691 31.5585 48.7642 31.5268 48.6057 31.2417C48.4156 30.9882 48.5107 30.9248 48.9226 31.0833Z" fill="#43CCB9"/>
<path d="M189.954 94.7104L189.954 94.6439C189.922 32.4774 189.922 30.608 190.492 30.6713C190.841 30.7347 191.126 30.9248 191.189 31.1466C191.221 31.3367 191.538 31.6536 191.886 31.812C192.362 32.0655 192.488 32.0338 192.33 31.7486C192.235 31.5268 192.425 31.6219 192.742 31.9704C193.059 32.3507 193.597 32.8259 193.914 33.0794C194.485 33.4913 194.516 33.4913 194.295 33.0794C194.136 32.8259 194.358 32.9844 194.77 33.428C195.182 33.8716 195.815 34.4419 196.132 34.6954C196.671 35.0756 196.734 35.0756 196.512 34.6637C196.354 34.4102 196.639 34.632 197.115 35.139C197.558 35.6459 197.843 35.8677 197.717 35.6143C197.621 35.3608 197.97 35.6459 198.54 36.248C199.111 36.85 199.364 37.0718 199.142 36.7232C198.921 36.3747 199.301 36.6599 199.998 37.3886C200.663 38.0857 201.075 38.4342 200.917 38.1491C200.758 37.8956 201.234 38.3075 202.026 39.1313C202.818 39.9234 203.293 40.3354 203.135 40.0502C202.976 39.7967 203.483 40.272 204.275 41.1592C205.068 42.0147 207 43.9475 208.553 45.4367C210.105 46.9259 210.961 47.7814 210.422 47.3378C209.884 46.8942 210.296 47.4012 211.341 48.4468C212.419 49.4924 212.989 50.1261 212.64 49.9043C212.292 49.6825 212.64 50.0944 213.432 50.8549C214.225 51.5836 214.573 52.0272 214.225 51.7737C213.876 51.5519 214.161 51.9322 214.858 52.5659C215.555 53.2313 215.841 53.5798 215.492 53.358C215.143 53.1362 215.365 53.4214 215.967 53.9917C216.569 54.562 216.854 54.9106 216.601 54.8155C216.347 54.6888 216.569 54.9739 217.076 55.4175C217.615 55.8928 217.805 56.178 217.552 56.0196C217.14 55.7978 217.14 55.8611 217.52 56.3998C217.773 56.7166 218.344 57.3503 218.787 57.7622C219.231 58.1742 219.389 58.396 219.136 58.2692C218.882 58.1425 219.009 58.3643 219.453 58.7445C219.896 59.1247 220.023 59.3465 219.769 59.2198C219.516 59.093 219.643 59.3148 220.086 59.6951C220.53 60.0753 220.657 60.2971 220.403 60.1703C220.15 60.0436 220.276 60.2654 220.72 60.6456C221.164 61.0258 221.29 61.2476 221.037 61.1209C220.783 60.9941 220.91 61.2159 221.354 61.5962C221.797 61.9764 221.924 62.1982 221.671 62.0714C221.417 61.9447 221.48 62.1031 221.829 62.3566C222.178 62.6418 222.304 62.8636 222.146 62.8636C221.987 62.8636 222.114 63.0854 222.463 63.3705C222.811 63.624 222.875 63.7825 222.621 63.6557C222.368 63.529 222.494 63.7508 222.938 64.131C223.382 64.5112 223.508 64.733 223.255 64.6063C222.97 64.4795 223.001 64.5746 223.318 64.8281C223.635 65.0499 223.794 65.335 223.667 65.4935C223.572 65.6202 223.635 65.7153 223.825 65.7153C224.047 65.7153 224.142 65.8737 224.047 66.0321C223.952 66.1905 224.047 66.349 224.205 66.349C224.364 66.349 224.459 66.5074 224.364 66.6658C224.269 66.8242 224.491 67.2678 224.839 67.6164C225.188 67.9649 225.378 68.3134 225.251 68.4085C225.156 68.5036 225.219 68.5669 225.409 68.5669C225.631 68.5669 225.726 68.7254 225.631 68.8838C225.536 69.0422 225.631 69.2006 225.79 69.2006C225.948 69.2006 226.043 69.3591 225.948 69.5175C225.853 69.6759 225.948 69.8343 226.17 69.8343C226.36 69.8343 226.423 69.9294 226.328 70.0878C226.202 70.2146 226.36 70.4997 226.677 70.7215C226.962 70.975 227.025 71.0701 226.835 70.975C226.518 70.8166 226.518 70.9433 226.835 71.577C227.025 71.9889 227.311 72.2741 227.469 72.2107C227.596 72.1157 227.627 72.2741 227.532 72.5276C227.437 72.7811 227.659 73.288 228.008 73.6366C228.356 73.9851 228.546 74.3336 228.42 74.4287C228.325 74.5238 228.42 74.5871 228.641 74.5871C228.863 74.5871 228.958 74.6505 228.863 74.7456C228.736 74.8406 228.863 75.1258 229.117 75.3793C229.402 75.6644 229.497 76.0763 229.37 76.4249C229.18 76.8368 229.212 76.9002 229.592 76.6467C229.972 76.3932 230.004 76.4566 229.814 76.9001C229.687 77.1853 229.719 77.4388 229.909 77.4388C230.067 77.4388 230.162 77.5972 230.067 77.7557C229.972 77.9141 230.067 78.0725 230.226 78.0725C230.384 78.0725 230.479 78.2309 230.384 78.3894C230.289 78.5478 230.289 78.928 230.384 79.1815C230.479 79.4667 230.701 79.5617 230.923 79.435C231.208 79.2449 231.24 79.3399 231.081 79.7518C230.954 80.037 230.986 80.2905 231.176 80.2905C231.366 80.2905 231.398 80.544 231.271 80.8608C231.081 81.2727 231.113 81.3361 231.493 81.0826C231.873 80.8291 231.905 80.8925 231.715 81.3361C231.588 81.6213 231.62 81.8747 231.81 81.8747C231.968 81.8747 232.063 82.0332 231.968 82.1916C231.873 82.35 231.968 82.5084 232.127 82.5084C232.285 82.5084 232.38 82.7302 232.285 82.9837C232.19 83.2372 232.285 83.459 232.444 83.459C232.634 83.459 232.665 83.7125 232.539 84.0293C232.349 84.4412 232.38 84.5046 232.76 84.2511C233.109 83.9977 233.141 84.061 232.919 84.7264C232.697 85.3918 232.729 85.4552 233.077 85.2017C233.458 84.9482 233.489 85.0116 233.299 85.4552C233.172 85.7403 233.204 85.9938 233.394 85.9938C233.553 85.9938 233.648 86.2156 233.553 86.4691C233.458 86.7226 233.553 86.9444 233.711 86.9444C233.901 86.9444 233.933 87.1979 233.806 87.5147C233.616 87.9266 233.648 87.99 234.028 87.7365C234.408 87.483 234.44 87.5464 234.25 87.99C234.123 88.2752 234.186 88.592 234.345 88.6871C234.503 88.7821 234.598 89.0673 234.503 89.3208C234.408 89.5743 234.503 89.7961 234.662 89.7961C234.852 89.7961 234.883 90.0812 234.757 90.5248C234.598 91.0318 234.63 91.1585 234.915 91.0001C235.2 90.81 235.232 90.9367 235.073 91.4754C234.883 92.0457 234.947 92.1091 235.295 91.8556C235.644 91.6021 235.675 91.6655 235.517 92.2675C235.39 92.6477 235.422 92.9646 235.612 92.9646C235.802 92.9646 235.834 93.2814 235.707 93.6933C235.549 94.232 235.58 94.327 235.929 94.0736C236.278 93.8201 236.309 93.9151 236.087 94.5488C235.866 95.1825 235.897 95.2776 236.246 95.0241C236.594 94.7706 236.658 94.8657 236.468 95.5945C236.341 96.1331 236.373 96.3866 236.563 96.2915C236.753 96.1965 236.784 96.45 236.658 97.0203C236.468 97.7174 236.531 97.8124 236.88 97.5589C237.228 97.3055 237.26 97.4322 237.07 98.3511C236.88 99.2066 236.911 99.365 237.196 98.9848C237.482 98.6045 237.513 98.763 237.323 99.6185C237.133 100.442 237.196 100.664 237.45 100.506C237.735 100.316 237.767 100.569 237.608 101.456C237.45 102.312 237.482 102.565 237.767 102.407C238.052 102.217 238.084 102.438 237.925 103.199C237.735 104.023 237.767 104.149 238.147 103.896C238.527 103.643 238.559 103.769 238.369 104.783C238.21 105.639 238.242 105.892 238.527 105.734C238.781 105.544 238.812 105.829 238.622 106.906C238.432 107.983 238.464 108.269 238.717 108.11C239.002 107.92 239.034 108.269 238.907 109.378C238.781 110.518 238.812 110.772 239.097 110.391C239.351 110.043 239.383 110.328 239.224 111.659C239.034 113.085 239.066 113.338 239.414 113.085C239.763 112.831 239.795 113.243 239.604 115.303C239.509 116.697 239.541 117.552 239.668 117.204C239.826 116.855 239.921 119.422 239.921 123.129C239.89 126.773 239.795 129.719 239.668 129.719C239.509 129.719 239.478 130.543 239.573 131.557C239.731 132.92 239.668 133.237 239.414 132.888C239.129 132.539 239.097 132.92 239.256 134.472C239.383 136.025 239.351 136.405 239.097 136.057C238.812 135.708 238.781 135.961 238.907 137.102C239.034 138.179 239.002 138.528 238.717 138.37C238.464 138.179 238.4 138.496 238.591 139.542C238.749 140.651 238.749 140.873 238.464 140.492C238.179 140.112 238.147 140.271 238.274 141.221C238.432 142.077 238.369 142.33 238.084 142.172C237.798 141.982 237.767 142.172 237.925 142.964C238.052 143.566 238.02 143.978 237.83 143.978C237.672 143.978 237.577 144.326 237.672 144.77C237.767 145.214 237.672 145.562 237.513 145.562C237.323 145.562 237.291 145.911 237.418 146.449C237.608 147.146 237.545 147.241 237.196 146.988C236.848 146.734 236.784 146.83 236.975 147.558C237.133 148.192 237.101 148.35 236.816 148.192C236.531 148.002 236.499 148.16 236.658 148.826C236.816 149.459 236.784 149.618 236.499 149.459C236.214 149.269 236.182 149.428 236.341 150.093C236.468 150.6 236.436 150.949 236.246 150.949C236.056 150.949 236.024 151.265 236.151 151.677C236.309 152.248 236.278 152.311 235.929 152.058C235.58 151.804 235.517 151.867 235.707 152.47C235.834 152.881 235.802 153.167 235.612 153.167C235.454 153.167 235.359 153.452 235.454 153.8C235.549 154.149 235.454 154.434 235.295 154.434C235.105 154.434 235.073 154.687 235.2 155.004C235.359 155.385 235.327 155.48 235.042 155.321C234.757 155.131 234.725 155.289 234.883 155.955C235.073 156.652 235.01 156.747 234.662 156.494C234.313 156.24 234.281 156.335 234.503 156.969C234.693 157.539 234.693 157.698 234.408 157.539C234.123 157.349 234.091 157.476 234.25 158.014C234.44 158.585 234.376 158.648 234.028 158.395C233.679 158.141 233.648 158.236 233.869 158.87C234.091 159.504 234.06 159.599 233.711 159.345C233.362 159.092 233.331 159.187 233.553 159.82C233.774 160.486 233.743 160.549 233.394 160.296C233.014 160.042 232.982 160.106 233.172 160.549C233.299 160.834 233.267 161.088 233.077 161.088C232.887 161.088 232.855 161.341 232.982 161.658C233.172 162.07 233.141 162.133 232.76 161.88C232.412 161.627 232.38 161.69 232.602 162.355C232.792 162.926 232.792 163.084 232.507 162.926C232.253 162.757 232.18 162.831 232.285 163.147C232.38 163.401 232.285 163.623 232.127 163.623C231.937 163.623 231.905 163.876 232.032 164.193C232.19 164.573 232.158 164.668 231.873 164.51C231.651 164.351 231.43 164.447 231.335 164.732C231.24 164.985 231.24 165.365 231.335 165.524C231.43 165.682 231.335 165.841 231.176 165.841C231.018 165.841 230.923 166.062 231.018 166.316C231.123 166.633 231.049 166.717 230.796 166.569C230.511 166.379 230.479 166.474 230.638 166.886C230.764 167.171 230.733 167.425 230.542 167.425C230.384 167.425 230.289 167.583 230.384 167.742C230.479 167.9 230.384 168.059 230.226 168.059C230.036 168.059 230.004 168.312 230.131 168.629C230.321 169.041 230.289 169.104 229.909 168.851C229.529 168.597 229.497 168.661 229.687 169.104C229.814 169.389 229.782 169.643 229.592 169.643C229.433 169.643 229.338 169.801 229.433 169.96C229.529 170.118 229.433 170.277 229.275 170.277C229.117 170.277 229.022 170.435 229.117 170.593C229.212 170.752 229.117 170.91 228.958 170.91C228.8 170.91 228.705 171.069 228.8 171.227C228.895 171.386 228.8 171.544 228.641 171.544C228.483 171.544 228.388 171.702 228.483 171.861C228.578 172.019 228.483 172.178 228.325 172.178C228.166 172.178 228.071 172.336 228.166 172.495C228.261 172.653 228.166 172.811 228.008 172.811C227.849 172.811 227.754 172.97 227.849 173.128C227.944 173.287 227.849 173.445 227.691 173.445C227.532 173.445 227.437 173.604 227.532 173.762C227.627 173.92 227.532 174.079 227.374 174.079C227.216 174.079 227.12 174.237 227.216 174.396C227.311 174.554 227.216 174.713 227.057 174.713C226.899 174.713 226.804 174.871 226.899 175.029C226.994 175.188 226.899 175.346 226.74 175.346C226.582 175.346 226.487 175.505 226.582 175.663C226.677 175.822 226.55 175.98 226.36 175.98C226.138 175.98 226.043 176.043 226.202 176.138C226.328 176.233 226.138 176.582 225.79 176.931C225.441 177.279 225.219 177.723 225.314 177.881C225.409 178.039 225.314 178.198 225.156 178.198C224.998 178.198 224.902 178.356 224.998 178.515C225.093 178.673 224.934 178.895 224.681 178.99C224.427 179.085 224.269 179.37 224.364 179.624C224.459 179.877 224.427 180.036 224.3 179.972C224.142 179.877 223.762 180.257 223.413 180.828C222.97 181.557 222.938 181.778 223.255 181.588C223.508 181.43 223.382 181.62 222.938 182C222.494 182.38 222.368 182.57 222.621 182.444C222.875 182.317 222.716 182.602 222.241 183.046C221.734 183.521 221.417 184.06 221.512 184.218C221.607 184.377 221.449 184.598 221.195 184.693C220.942 184.788 220.562 185.137 220.403 185.486C220.15 185.961 220.181 186.088 220.498 185.929C220.688 185.834 220.53 186.056 220.086 186.436C219.643 186.816 219.516 187.038 219.769 186.911C220.023 186.785 219.833 187.07 219.294 187.545C218.787 187.989 218.565 188.274 218.819 188.179C219.072 188.052 218.946 188.274 218.502 188.654C218.058 189.034 217.932 189.256 218.185 189.129C218.439 189.003 218.249 189.288 217.71 189.763C217.203 190.207 216.981 190.492 217.235 190.397C217.488 190.27 217.361 190.492 216.918 190.904C216.443 191.316 215.809 192.013 215.492 192.456C214.858 193.248 214.858 193.248 215.492 192.805C215.841 192.551 215.555 192.9 214.858 193.565C214.161 194.199 213.876 194.579 214.225 194.357C214.573 194.104 214.288 194.484 213.559 195.181C212.862 195.847 212.514 196.259 212.799 196.1C213.084 195.942 212.577 196.512 211.69 197.368C210.803 198.255 210.296 198.793 210.581 198.635C210.866 198.477 210.264 199.079 209.25 199.997C208.236 200.885 207.476 201.74 207.571 201.899C207.634 202.025 206.842 202.976 205.796 204.021C204.751 205.067 203.863 205.859 203.832 205.764C203.768 205.669 203.103 206.176 202.343 206.841C201.55 207.507 201.139 207.95 201.392 207.824C201.677 207.665 201.614 207.855 201.234 208.267C200.885 208.647 200.441 208.964 200.283 208.933C200.125 208.933 199.554 206.271 199.047 203.008C198.572 199.712 197.526 193.343 196.766 188.812C196.006 184.281 194.897 178.071 194.263 175.029C193.661 171.988 192.71 167.9 192.203 165.999C191.696 164.098 190.968 161.658 190.619 160.613C189.986 158.712 189.985 158.3 189.954 94.7104Z" fill="#43CCB9"/>
<path d="M120.183 227.31C120.119 228.102 120.056 227.532 120.056 226.043C120.056 224.553 120.119 223.92 120.183 224.617C120.246 225.314 120.246 226.518 120.183 227.31Z" fill="#43CCB9"/>
<path d="M144.675 0.0633695C131.177 0.12674 109.219 0.12674 95.88 0.0633695C82.5405 0.0316843 93.5987 0 120.436 0C147.273 0 158.173 0.0316843 144.675 0.0633695Z" fill="#007F78"/>
<path d="M80.1959 134.536C81.4317 134.155 83.206 133.585 84.1566 133.237C85.1072 132.92 85.9943 132.635 86.0894 132.635C86.2161 132.603 85.9627 133.268 85.5191 134.092C85.1072 134.948 84.1883 136.88 83.5229 138.465C82.8575 140.049 81.9386 142.742 81.495 144.485C81.0514 146.227 80.5762 148.731 80.4177 150.03C80.291 151.329 80.1959 153.8 80.1959 158.553L79.087 158.743C78.4849 158.87 77.1858 159.44 76.2353 160.011C75.2847 160.581 73.9539 161.658 73.2885 162.419C72.6232 163.179 71.6726 164.668 71.1656 165.714C70.6904 166.76 70.1834 168.059 70.0883 168.566C69.9933 169.073 69.8349 169.865 69.7398 170.308C69.6764 170.752 69.518 171.544 69.4229 172.051C69.3279 172.558 69.1695 174.776 69.0427 176.962C68.8526 180.448 68.8843 180.986 69.3596 181.493C69.7715 181.905 69.8982 182.666 69.9299 184.63C69.9299 186.088 69.9933 187.545 70.025 187.894C70.0883 188.242 70.2151 189.319 70.3418 190.27C70.4369 191.221 70.5953 192.298 70.6587 192.646C70.722 192.995 71.0389 194.262 71.3241 195.498C71.6092 196.734 72.3063 198.572 72.845 199.585C73.4153 200.631 74.8094 202.437 75.9818 203.641C77.1858 204.814 78.3899 205.923 78.675 206.081C79.0236 206.239 79.6256 206.239 80.1959 206.081C80.7029 205.923 81.4 205.542 81.7168 205.225C82.0337 204.94 82.2872 204.307 82.2555 203.8C82.2555 203.229 81.9386 202.659 81.3049 202.152C80.798 201.708 80.1642 201.328 79.9741 201.328C79.7523 201.296 79.4989 201.296 79.4038 201.296C79.3088 201.265 78.8652 201.36 78.3582 201.487C77.6294 201.645 77.3126 201.455 76.2036 200.314C75.5065 199.585 74.6193 198.35 74.2708 197.558C73.9539 196.765 73.4787 195.403 73.2252 194.548C73.0034 193.66 72.7182 192.044 72.5915 190.904C72.4647 189.763 72.2746 187.925 72.1162 186.785C71.9578 185.644 71.9261 183.236 71.9895 181.398C72.0528 179.56 72.2113 176.93 72.3063 175.536C72.4014 174.142 72.5598 172.495 72.6548 171.893C72.7499 171.291 72.845 170.625 72.8766 170.467C72.94 170.308 73.1301 169.548 73.3202 168.787C73.542 168.059 74.0173 166.918 74.3975 166.253C74.7778 165.619 75.5065 164.605 76.0452 164.035C76.5838 163.433 77.5344 162.704 78.1364 162.387C78.7384 162.07 79.7523 161.722 80.3544 161.595C80.9564 161.468 81.9703 161.373 82.5723 161.405C83.1744 161.405 84.3784 161.785 85.2656 162.197C86.1528 162.609 87.2301 163.306 87.6737 163.718C88.1172 164.098 89.0995 165.302 89.8283 166.348C90.557 167.393 91.4442 169.041 91.7927 169.991C92.173 170.942 92.7433 172.843 93.0601 174.174C93.377 175.536 93.7572 177.596 93.8523 178.768C93.979 179.972 94.1691 181.081 94.3276 181.24C94.486 181.398 94.581 183.426 94.581 185.676C94.5494 187.925 94.3276 191.125 94.1058 192.71C93.8523 194.326 93.3453 196.417 92.9334 197.304C92.5215 198.223 91.6026 199.649 90.8739 200.473C89.5748 201.962 89.5114 201.994 88.6876 201.55C87.9271 201.17 87.642 201.17 86.6914 201.582C86.0894 201.835 85.3289 202.342 85.0121 202.722C84.6952 203.103 84.4734 203.673 84.4734 203.958C84.4734 204.275 84.7903 204.814 85.1705 205.162C85.5824 205.511 86.026 205.827 86.2161 205.827C86.4062 205.859 86.8182 205.859 87.1667 205.827C87.5152 205.796 88.2123 205.606 88.6876 205.384C89.1629 205.162 89.6381 204.782 89.7015 204.528C89.7649 204.275 90.3352 203.705 90.9056 203.261C91.5076 202.817 92.4898 201.898 93.0601 201.201C93.6622 200.504 94.4543 199.078 94.8345 198.033C95.2147 196.987 95.7534 195.054 95.9752 193.755C96.2287 192.456 96.4505 189.161 96.4822 186.468C96.5138 183.775 96.6723 181.398 96.8307 181.24C96.9891 181.081 97.0525 180.067 96.9574 179.022C96.8307 177.849 96.8941 177.247 97.0525 177.437C97.2426 177.596 98.2565 179.022 99.3972 180.606C100.506 182.19 102.692 185.169 104.277 187.228C105.829 189.319 107.699 191.759 108.396 192.646C109.093 193.565 110.265 194.991 110.994 195.847C111.723 196.702 112.61 197.748 112.99 198.191C113.37 198.635 114.416 199.839 115.303 200.853C116.222 201.898 117.268 203.103 118.408 204.37L118.25 216.727C118.155 223.54 118.06 231.081 118.06 237.956L114.955 238.02C113.275 238.051 110.107 237.861 107.921 237.608C105.734 237.354 101.9 236.784 99.3655 236.34C96.8307 235.897 92.4898 235.01 89.7015 234.312C86.9132 233.647 83.206 232.57 81.4633 231.936C79.7207 231.271 76.362 229.877 74.0173 228.831C71.6726 227.785 68.4724 226.201 64.1315 223.698L64.3216 215.618C64.4167 211.182 64.5751 203.831 64.6702 199.3C64.7652 194.769 64.8603 185.2 64.9553 165.08H64.1949C63.6562 165.08 63.4028 165.302 63.2443 165.872C63.1176 166.316 62.9908 172.083 62.9592 178.705C62.9275 185.327 62.8324 192.805 62.769 195.34C62.7057 197.874 62.5472 205.004 62.4205 211.182C62.3254 217.361 62.1987 222.494 62.1037 222.589C62.0403 222.684 61.4383 222.367 60.8046 221.924C60.1392 221.48 59.0302 220.91 58.3331 220.688C57.636 220.434 54.5309 218.565 51.4574 216.505C48.3523 214.446 44.8986 211.879 41.7617 208.806L42.1736 205.954C42.3954 204.37 42.6489 202.469 42.7756 201.677C42.9024 200.885 43.2826 198.54 43.5995 196.449C43.948 194.357 44.2965 192.076 44.4233 191.379C44.5183 190.682 44.9302 188.115 45.3738 185.676C45.7857 183.236 46.3561 180.036 46.6412 178.546C46.8947 177.057 47.4651 174.269 47.9087 172.368C48.3523 170.467 49.0493 167.678 49.4612 166.189C49.8731 164.7 50.7286 162.07 51.3624 160.327C51.9644 158.585 52.8516 156.367 53.2952 155.416C53.7387 154.466 54.8477 152.469 55.7349 151.012C56.6538 149.523 58.1747 147.527 59.1252 146.576C60.0758 145.594 61.4383 144.358 62.1353 143.788C62.8324 143.249 64.0998 142.33 64.987 141.728C65.8425 141.158 67.205 140.302 67.9971 139.827C68.7892 139.383 70.7854 138.401 72.433 137.672C74.0807 136.944 76.0135 136.088 76.7106 135.771C77.4076 135.486 78.9602 134.916 80.1959 134.536Z" fill="#FBFCFB"/>
<path d="M157.096 140.524C156.684 139.225 155.734 137.007 154.973 135.581L153.642 133.046L155.734 133.775C156.874 134.155 158.3 134.504 158.839 134.504C159.409 134.504 160.645 134.789 161.532 135.138C162.451 135.518 163.972 136.152 164.859 136.563C165.778 137.007 166.602 137.356 166.697 137.356C166.792 137.356 168.027 137.894 169.453 138.591C170.911 139.257 172.749 140.239 173.572 140.809C174.428 141.348 175.157 141.792 175.252 141.792C175.347 141.792 175.949 142.172 176.582 142.647C177.248 143.154 178.737 144.453 179.909 145.594C181.05 146.734 182.761 148.794 183.68 150.188C184.599 151.582 185.676 153.515 186.088 154.466C186.5 155.416 186.975 156.494 187.102 156.842C187.251 157.169 187.622 158.081 187.955 158.899L188.021 159.06C188.369 159.947 188.908 161.436 189.193 162.387C189.478 163.338 190.144 165.841 190.651 167.932C191.158 170.023 191.728 172.304 191.886 173.002C192.077 173.699 192.552 176.043 192.964 178.23C193.407 180.416 194.104 184.472 194.548 187.26C195.023 190.048 195.53 193.217 195.689 194.326C195.879 195.403 196.164 197.177 196.322 198.286C196.513 199.364 196.734 200.758 196.829 201.36C196.924 201.962 197.178 203.895 197.431 205.637C197.78 208.299 197.78 208.901 197.431 209.44C197.21 209.788 196.164 210.802 195.15 211.689C194.136 212.576 191.95 214.287 190.302 215.46C188.655 216.664 186.12 218.407 184.662 219.325C183.236 220.244 181.874 221.005 181.652 221.005C181.462 221.005 180.416 221.417 179.371 221.924C178.325 222.462 177.438 222.842 177.438 222.811C177.406 222.779 177.28 212.767 177.153 200.568L177.123 197.682C177.006 186.459 176.894 175.645 176.836 172.843C176.773 169.801 176.709 166.76 176.709 166.126C176.678 165.017 176.614 164.922 174.935 165.08L174.967 171.893C174.967 175.631 175.093 188.908 175.474 224.015L171.861 225.979C169.897 227.025 166.918 228.482 165.271 229.179C163.623 229.877 160.772 230.986 158.934 231.619C157.096 232.253 153.896 233.235 151.805 233.837C149.713 234.408 146.925 235.136 145.626 235.421C144.327 235.707 141.032 236.277 138.338 236.689C135.645 237.132 132.065 237.608 130.417 237.798C128.769 237.988 126.488 238.115 125.347 238.115C124.207 238.083 122.559 238.083 120.119 238.146L120.246 221.892C120.309 208.806 120.436 205.447 120.785 204.687C121.038 204.18 121.704 203.229 122.274 202.627C122.844 202.025 124.08 200.599 125.031 199.459C125.981 198.318 126.837 197.336 126.932 197.241C127.027 197.146 127.66 196.385 128.358 195.498C129.023 194.643 129.688 193.85 129.783 193.755C129.878 193.66 130.29 193.153 130.734 192.615C131.178 192.076 131.875 191.157 132.318 190.587C132.762 189.985 133.744 188.717 134.536 187.767L134.69 187.576C135.463 186.618 136.438 185.41 136.913 184.757C137.451 184.091 138.845 182.222 140.081 180.606C141.317 178.99 143.662 175.917 145.341 173.762C147.02 171.607 149.492 168.185 150.854 166.189C152.217 164.193 153.516 162.102 153.737 161.595C154.118 160.739 154.054 160.518 153.294 159.345C152.819 158.648 151.931 157.444 151.298 156.652C150.664 155.891 149.999 154.941 149.777 154.561C149.46 153.895 149.555 153.737 151.234 152.755C152.248 152.153 153.832 151.297 154.72 150.854C155.639 150.41 156.494 150.125 156.621 150.22C156.779 150.315 156.906 154.973 156.906 160.581C156.938 166.189 156.906 171.481 156.811 172.368C156.684 173.889 156.621 173.952 155.67 174.047C155.1 174.079 153.928 174.459 153.072 174.871C152.185 175.283 150.886 176.328 150.125 177.184C149.365 178.008 148.478 179.465 148.129 180.353C147.812 181.271 147.495 182.919 147.495 183.996C147.464 185.105 147.622 186.563 147.844 187.26C148.097 187.957 148.446 188.876 148.699 189.319C148.921 189.763 149.65 190.682 150.315 191.347C150.949 192.044 152.185 192.932 153.072 193.343C153.928 193.755 155.448 194.167 156.399 194.294C157.856 194.452 158.522 194.326 160.518 193.597C161.944 193.058 163.401 192.203 164.162 191.506C164.859 190.872 165.81 189.541 166.285 188.559C166.792 187.577 167.267 186.024 167.362 185.137C167.489 184.123 167.394 182.761 167.172 181.715C166.95 180.764 166.475 179.465 166.126 178.863C165.81 178.261 164.922 177.216 164.194 176.55C163.496 175.917 162.166 175.093 159.726 174.111L159.789 163.876C159.853 156.335 159.726 152.818 159.377 150.347C159.124 148.509 158.68 146.101 158.395 144.96C158.142 143.819 157.54 141.823 157.096 140.524Z" fill="#FBFCFB"/>
<path fill-rule="evenodd" clip-rule="evenodd" d="M66.8242 0.792161C65.6201 1.10901 64.2577 1.48924 63.8141 1.64766C63.3705 1.7744 62.0397 2.40811 60.804 3.04182C59.5999 3.67552 58.2375 4.53102 57.7939 4.91124C57.3503 5.29147 56.7166 5.83011 56.3681 6.11528C56.0195 6.40045 55.1006 7.41438 54.3085 8.36494C53.5164 9.31549 52.7242 10.3928 52.5658 10.7413C52.3757 11.0899 51.9955 11.8186 51.7103 12.3573C51.4568 12.8642 51.0766 13.6564 50.8865 14.1C50.6964 14.5119 50.4112 15.6209 50.2211 16.5397C49.9676 17.6804 49.8726 40.1769 49.8726 88.1484V158.109C48.3517 162.767 47.5596 165.556 47.116 167.298C46.704 169.041 45.9119 172.59 45.405 175.22C44.898 177.818 43.9157 183.236 43.2187 187.26C42.5533 191.252 41.476 197.811 40.8423 201.835L39.6699 209.123C41.0007 210.137 41.1908 210.168 41.3492 209.852C41.476 209.63 41.7295 208.141 41.9196 206.588C42.1414 205.004 42.9335 199.744 43.6939 194.864C44.4544 189.985 45.5951 183.268 46.2288 179.972C46.8308 176.645 47.8764 171.861 48.4784 169.358C49.1121 166.823 50.1894 163.116 50.9182 161.12C51.6153 159.092 52.6609 156.462 53.2312 155.258C53.8015 154.022 54.6571 152.374 55.1323 151.614C55.6076 150.822 56.6532 149.333 57.4454 148.287C58.2375 147.241 59.9168 145.53 61.1525 144.485C62.3883 143.439 64.6062 141.823 66.0637 140.936C67.5213 140.049 69.8026 138.813 71.1017 138.179C72.4008 137.577 74.5554 136.627 75.8545 136.088C77.1536 135.55 78.8646 134.821 79.6567 134.504C80.4488 134.155 82.3817 133.395 83.9342 132.793C85.5185 132.191 86.8493 131.747 86.9443 131.811C87.0394 131.906 86.881 132.223 86.5958 132.508C86.3106 132.825 85.6452 133.934 85.1066 134.979C84.5996 136.025 83.7441 137.926 83.2055 139.257C82.6985 140.556 81.9697 142.774 81.5895 144.168C81.2093 145.562 80.7657 147.875 80.5756 149.301C80.4172 150.758 80.2587 153.42 80.2271 155.258C80.1637 157.951 80.0369 158.585 79.6567 158.585C79.4032 158.585 78.3893 158.933 77.4388 159.409C76.4882 159.852 75.2208 160.581 74.6188 161.056C74.0167 161.531 72.9711 162.767 72.3057 163.813C71.6404 164.858 70.8165 166.569 70.468 167.615C70.1195 168.661 69.7076 170.498 69.5491 171.734C69.359 172.938 69.2006 175.568 69.2006 177.596C69.1689 179.592 69.2956 181.303 69.4541 181.398C69.6125 181.462 69.8343 183.268 69.961 185.359C70.0878 187.45 70.2462 189.795 70.3413 190.587C70.4363 191.347 70.8799 193.439 71.3235 195.181C71.7354 196.924 72.4958 199.047 73.0028 199.934C73.5098 200.79 74.5871 202.184 75.4426 202.976C76.2664 203.768 77.2803 204.814 77.6922 205.289C78.1992 205.891 78.7062 206.113 79.53 206.113C80.2904 206.113 80.8924 205.859 81.4311 205.321C81.9697 204.75 82.1599 204.275 82.0331 203.641C81.9697 203.166 81.4945 202.437 81.0192 202.025C80.2587 201.392 79.9102 201.296 78.7062 201.455C77.3437 201.645 77.217 201.582 76.0446 200.314C75.3475 199.585 74.4603 198.255 74.0801 197.399C73.6999 196.512 73.1296 194.674 72.8761 193.28C72.5909 191.886 72.2424 189.605 72.0839 188.21C71.9572 186.816 71.8938 183.236 71.9572 180.289C72.0206 177.311 72.3057 173.54 72.5592 171.893C72.8444 170.055 73.383 168.122 73.9217 166.981C74.4286 165.936 75.2208 164.668 75.6644 164.193C76.108 163.718 77.0268 162.989 77.6922 162.609C78.3259 162.197 79.3716 161.722 79.9736 161.531C80.5756 161.341 81.6529 161.215 82.35 161.246C83.047 161.278 84.2511 161.595 85.0432 161.975C85.8353 162.355 86.976 163.116 87.6097 163.718C88.2434 164.288 89.194 165.334 89.701 166.031C90.2396 166.728 91.0317 168.059 91.4753 169.041C91.9189 169.991 92.4893 171.702 92.7427 172.843C93.0279 173.952 93.5349 176.614 93.9151 178.705C94.3904 181.398 94.5805 183.648 94.5488 186.468C94.5171 188.622 94.2953 191.632 94.0735 193.122C93.82 194.579 93.2814 196.575 92.8378 197.558C92.3942 198.508 91.4436 199.902 90.7466 200.631C89.6376 201.835 89.4158 201.93 88.7821 201.645C88.3702 201.455 87.6097 201.36 87.0394 201.487C86.4374 201.582 85.6769 202.057 85.2016 202.627C84.758 203.134 84.4095 203.673 84.4095 203.8C84.4095 203.926 84.6947 204.433 85.0432 204.909C85.5502 205.606 85.9304 205.796 86.9443 205.796C87.9899 205.796 88.4335 205.574 89.4475 204.592C90.1129 203.958 91.1268 202.976 91.6971 202.469C92.2991 201.93 93.1863 200.853 93.6616 200.092C94.1686 199.3 94.8656 197.716 95.1825 196.607C95.531 195.466 95.8796 194.041 95.9746 193.439C96.0697 192.805 96.2281 189.89 96.3549 186.943C96.4499 183.965 96.64 181.398 96.7984 181.24C96.9252 181.05 96.9252 179.972 96.7984 178.863C96.64 177.723 96.545 176.772 96.5766 176.709C96.6083 176.677 97.4005 177.754 98.3193 179.085C99.2699 180.448 101.456 183.394 103.135 185.676C104.847 187.925 107.033 190.84 108.047 192.171C109.029 193.47 110.645 195.466 111.627 196.607C112.609 197.716 113.845 199.142 114.415 199.776C114.954 200.378 116.063 201.645 116.887 202.627L118.376 204.37L118.154 240.016H119.897C119.929 225.884 119.992 221.227 120.024 220.529C120.055 219.832 120.119 216.03 120.15 212.133L120.182 205.004C126.709 197.336 130.607 192.583 133.046 189.478C135.486 186.373 138.433 182.602 139.574 181.113C140.714 179.624 143.122 176.455 144.96 174.111C146.766 171.734 149.491 167.964 151.044 165.714C152.565 163.433 153.8 161.278 153.8 160.866C153.8 160.486 152.818 158.87 151.582 157.222C150.378 155.606 149.364 154.181 149.364 154.054C149.364 153.927 149.903 153.483 150.568 153.072C151.202 152.66 152.818 151.741 154.117 151.044L156.493 149.745C156.874 152.786 156.969 157.793 156.969 162.862C156.969 167.9 156.905 172.463 156.81 173.002C156.652 173.794 156.43 173.984 155.384 174.174C154.687 174.301 153.547 174.713 152.85 175.061C152.153 175.41 151.012 176.297 150.283 177.026C149.586 177.786 148.699 179.022 148.319 179.814C147.748 180.955 147.622 181.778 147.622 184.25C147.622 186.88 147.748 187.45 148.445 188.844C148.921 189.7 149.871 190.967 150.6 191.601C151.329 192.266 152.438 193.027 153.103 193.28C153.737 193.565 155.004 193.914 155.86 194.072C157.064 194.326 157.919 194.262 159.345 193.882C160.391 193.629 161.975 192.932 162.831 192.361C163.718 191.791 164.89 190.619 165.46 189.763C166.031 188.908 166.664 187.64 166.855 186.943C167.045 186.246 167.171 184.662 167.171 183.458C167.14 181.778 166.95 180.859 166.348 179.655C165.936 178.768 165.048 177.501 164.351 176.835C163.686 176.17 162.577 175.346 161.88 175.029C161.183 174.713 160.391 174.427 160.137 174.427C159.725 174.427 159.662 172.97 159.662 163.401C159.662 153.388 159.599 152.058 158.965 148.445C158.553 146.259 157.793 143.122 157.286 141.475C156.747 139.795 155.796 137.451 155.194 136.247C154.561 135.011 153.8 133.553 153.452 132.983C153.135 132.413 152.881 131.906 152.945 131.842C152.976 131.779 154.656 132.349 156.652 133.141C158.648 133.902 161.5 135.043 162.989 135.676C164.478 136.278 167.266 137.546 169.168 138.433C171.1 139.352 173.857 140.873 175.346 141.855C176.835 142.805 179.053 144.643 180.257 145.942C181.493 147.21 182.951 148.952 183.521 149.776C184.091 150.6 185.232 152.755 186.088 154.529C186.943 156.335 188.21 159.504 188.939 161.595C189.636 163.686 190.777 167.964 191.506 171.1C192.234 174.237 193.312 179.56 193.914 182.982C194.516 186.373 195.72 193.85 196.575 199.617C197.463 205.352 198.16 210.263 198.16 210.549C198.16 210.865 198.445 210.739 199.047 210.137L199.902 209.281C197.558 194.167 196.29 186.658 195.593 182.824C194.896 178.99 193.819 173.635 193.217 170.942C192.646 168.217 191.664 164.447 191.03 162.545L189.953 159.06C189.89 43.1237 189.795 19.0429 189.573 17.9022C189.383 16.92 188.971 15.304 188.622 14.2584C188.274 13.2128 187.323 11.28 186.499 9.98089C185.676 8.68179 184.725 7.35101 184.377 7.06584C184.028 6.74899 183.616 6.62225 183.426 6.74899C183.268 6.87573 183.236 6.81236 183.331 6.65393C183.458 6.46382 183.299 6.05191 182.982 5.70338C182.665 5.35484 182.095 4.81619 181.715 4.49934C181.366 4.21417 180.986 3.96069 180.891 3.96069C180.796 3.96069 180.194 3.58046 179.56 3.13687C178.895 2.69327 176.994 1.86946 175.346 1.33081L172.336 0.316882C70.7532 0.190141 68.9788 0.190141 66.8242 0.792161ZM63.4022 165.27C63.3071 165.524 63.1487 169.896 63.0536 175.061C62.9586 180.194 62.8002 192.013 62.7051 201.36C62.61 210.675 62.4833 219.706 62.3883 221.385L62.2298 224.49L64.1309 225.441C64.1626 216.22 64.226 211.753 64.3211 209.598C64.3844 207.412 64.4795 196.512 64.5112 185.359C64.6062 166.538 64.5745 165.08 64.0676 164.985C63.7824 164.922 63.4655 165.049 63.4022 165.27ZM175.093 165.46C174.934 165.777 174.839 167.742 174.903 169.833C174.934 171.924 175.061 184.091 175.156 196.924C175.283 209.725 175.473 221.385 175.6 222.811C175.726 224.268 175.853 225.441 175.917 225.441C175.948 225.441 176.297 225.251 176.677 225.029L177.374 224.649C177.026 197.146 176.835 183.806 176.74 177.279C176.614 170.72 176.487 165.27 176.424 165.144C176.36 165.017 176.107 164.922 175.821 164.922C175.568 164.922 175.251 165.175 175.093 165.46Z" fill="#003A44"/>
<path d="M209.313 46.1021C209.218 46.1021 207.95 44.898 206.461 43.4088C204.972 41.9196 203.895 40.7156 204.021 40.7156C204.148 40.7156 205.447 41.9196 206.873 43.4088C208.299 44.898 209.408 46.1021 209.313 46.1021Z" fill="#20BBA7"/>
<path d="M10.3294 76.4249C10.3294 76.2981 10.773 75.2842 11.3433 74.1435C11.9137 73.0345 12.3889 72.179 12.4523 72.2424C12.5157 72.3375 12.0404 73.3514 11.4384 74.5237C10.868 75.7278 10.3611 76.5833 10.3294 76.4249Z" fill="#20BBA7"/>
<path d="M0.0950558 125.632C0.0633705 127.121 0 126.044 0 123.256C0 120.467 0.0633705 119.263 0.0950558 120.562C0.158426 121.862 0.158426 124.143 0.0950558 125.632Z" fill="#20BBA7"/>
<path d="M239.952 125.474C239.889 126.519 239.857 125.727 239.857 123.731C239.857 121.735 239.889 120.879 239.952 121.83C240.016 122.78 240.016 124.428 239.952 125.474Z" fill="#20BBA7"/>
<path d="M38.5293 208.014C38.4342 208.014 36.5014 206.176 34.2518 203.895C31.9704 201.613 30.2594 199.776 30.3862 199.776C30.5129 199.776 32.4457 201.645 34.6637 203.895C36.8816 206.176 38.6243 208.014 38.5293 208.014Z" fill="#20BBA7"/>
<path d="M201.708 207.697C201.455 207.824 203.071 206.113 205.352 203.863C207.602 201.613 209.535 199.776 209.63 199.776C209.693 199.776 208.077 201.487 205.986 203.61C203.895 205.701 201.962 207.538 201.708 207.697Z" fill="#20BBA7"/>
<path d="M63.7189 10.6145C64.6378 9.98084 66.3171 9.18871 67.6796 8.77681C69.8976 8.11142 70.7214 8.07973 90.6514 8.01636L91.4119 10.0125C91.8555 11.1215 92.711 12.579 93.3447 13.2761C93.9784 13.9732 95.2775 14.8921 97.939 16.1278H141.665L143.376 15.3357C144.326 14.8921 145.689 13.9098 146.417 13.1177C147.273 12.1988 147.97 11.0265 148.952 8.04804H159.567C168.217 8.04804 170.53 8.1431 172.083 8.55501C173.128 8.84017 174.617 9.37883 175.409 9.79073C176.202 10.171 177.564 11.2799 178.42 12.1988C179.307 13.1494 180.321 14.6069 180.733 15.4307C181.113 16.2545 181.651 17.7437 181.905 18.7577C182.317 20.3419 182.38 28.1682 182.38 80.6707C182.38 113.75 182.285 140.809 182.158 140.809C182 140.809 180.828 140.461 179.529 140.017C178.229 139.574 177.12 139.225 177.089 139.225C177.025 139.225 175.631 138.528 173.984 137.641C172.241 136.722 170.815 136.152 170.593 136.278C170.34 136.437 170.276 136.405 170.403 136.215C170.53 136.025 169.326 135.328 167.552 134.567C165.872 133.839 163.211 132.761 161.626 132.128C160.042 131.526 158.078 130.955 157.19 130.86C156.335 130.797 155.099 130.543 154.497 130.321C153.895 130.1 152.533 129.371 151.487 128.674C150.441 127.977 149.301 127.153 148.952 126.836C148.604 126.519 148.16 126.234 148.002 126.171C147.843 126.107 147.717 125.981 147.78 125.854C147.812 125.695 147.368 125.252 146.829 124.808C146.259 124.396 145.594 124.016 145.404 124.016C145.182 124.016 144.231 123.509 143.344 122.907C142.425 122.273 141.38 121.703 141.031 121.608C140.651 121.513 140.302 121.069 140.144 120.436C140.017 119.897 139.922 118.281 139.922 116.887C139.89 114.542 139.985 114.289 140.746 113.56C141.221 113.116 142.457 111.627 143.471 110.233C144.516 108.839 145.911 106.558 146.576 105.163C147.241 103.769 148.065 101.646 148.414 100.411C148.762 99.1749 149.142 97.8124 149.237 97.3371C149.396 96.5767 149.586 96.4499 150.537 96.4499C151.139 96.4499 152.469 96.1331 153.483 95.7528C154.719 95.2776 155.828 94.5171 156.969 93.3764C157.888 92.4259 159.028 90.8416 159.535 89.7327C160.074 88.6237 160.708 86.7542 160.993 85.5185C161.373 83.9976 161.5 82.3817 161.405 80.4489C161.31 78.2309 161.088 77.1853 160.486 75.8545C160.042 74.9039 159.313 73.6682 158.87 73.1613C158.458 72.6543 157.412 71.8939 156.62 71.5136C155.796 71.1017 155.131 70.7532 155.131 70.7215C155.131 70.6581 155.479 69.4224 155.923 67.9332C156.367 66.444 156.969 63.8775 157.222 62.2298C157.507 60.5822 157.761 57.2869 157.761 54.9422C157.792 51.1717 157.729 50.4746 157.095 49.1755C156.715 48.32 155.955 47.3378 155.448 46.9576C154.782 46.4506 154.497 45.9753 154.497 45.3733C154.497 44.8663 154.339 43.7257 154.149 42.8385C153.959 41.9196 153.452 40.4938 153.04 39.6699C152.628 38.8144 151.709 37.5787 151.012 36.8816C150.315 36.1846 149.142 35.3291 148.414 34.9805C147.653 34.632 146.766 34.3468 146.417 34.3468C145.942 34.3468 145.689 33.9983 145.372 32.8576C145.023 31.7169 144.453 30.8614 142.995 29.4039C141.791 28.2316 140.207 27.0909 138.971 26.4889C137.831 25.9502 136.056 25.2848 135.011 24.9997C133.807 24.7145 131.684 24.5244 129.244 24.5244C125.822 24.5244 124.967 24.3976 122.273 23.5738C120.562 23.0669 118.249 22.4965 117.109 22.3064C115.968 22.148 114.13 21.9896 112.99 21.9896C111.849 21.9896 109.758 22.2747 108.332 22.6233C106.874 22.9718 104.751 23.7323 103.579 24.3026C102.407 24.8412 100.569 26.1086 99.5233 27.0909C98.4777 28.0731 97.337 29.4673 96.9885 30.196C96.4181 31.4001 96.2597 31.5268 95.1824 31.4951C94.517 31.4951 93.1545 31.812 92.1723 32.1922C90.9683 32.6358 89.7642 33.4596 88.7186 34.5052C87.673 35.4875 86.6908 36.9133 86.0254 38.3075C85.2015 40.0818 84.9481 41.0324 84.853 43.0603C84.7263 45.0564 84.5678 45.7535 84.0292 46.3872C83.649 46.8308 82.9836 48.0348 82.5717 49.0805C81.9063 50.7598 81.8112 51.4568 81.8112 55.2591C81.8112 57.984 82.033 60.5822 82.3816 62.3883C82.6667 63.9725 83.2688 66.4757 83.6807 68.0282C84.1243 69.5491 84.4728 70.8482 84.4728 70.9433C84.4728 71.0383 84.1559 71.1651 83.7757 71.2601C83.3638 71.3235 82.4132 71.9255 81.6528 72.5909C80.829 73.3197 79.8784 74.5871 79.2764 75.8545C78.3575 77.7873 78.2942 78.1042 78.3258 81.3994C78.3575 83.8392 78.516 85.3601 78.9279 86.4691C79.213 87.3563 79.8467 88.8455 80.2903 89.796C80.7656 90.7466 81.938 92.3308 82.8885 93.2814C83.8391 94.2636 85.2016 95.3092 85.8986 95.6578C86.5957 95.9746 87.8314 96.3232 88.6552 96.4182C90.0177 96.5767 90.1761 96.7034 90.3662 97.5589C90.4613 98.0659 90.8415 99.4283 91.1901 100.569C91.5386 101.71 92.3624 103.706 92.9644 105.005C93.5665 106.304 94.6121 108.173 95.2458 109.124C95.8795 110.075 97.2103 111.722 99.9669 114.669L99.9986 121.164L98.6678 121.798C97.9073 122.147 96.5449 122.812 95.626 123.287C94.7071 123.794 94.0734 124.301 94.2002 124.428C94.3586 124.586 94.2002 124.618 93.915 124.523C93.5348 124.396 92.8694 124.745 92.0139 125.537C91.2534 126.202 90.0811 127.185 89.384 127.723C88.6869 128.262 87.7364 128.896 87.2611 129.117C86.7858 129.371 86.4373 129.624 86.5006 129.719C86.564 129.814 86.4373 129.878 86.2472 129.91C86.0571 129.91 85.6451 129.973 85.36 129.973C85.0431 130.005 84.853 130.195 84.9481 130.353C85.0431 130.543 84.8213 130.575 84.4094 130.448C83.9658 130.321 83.7757 130.353 83.8708 130.512C83.9975 130.702 83.4272 130.86 82.4449 130.86C81.3043 130.892 79.6249 131.399 76.7099 132.539C74.4602 133.427 70.3728 135.264 67.6796 136.595C64.9864 137.926 62.5466 139.067 62.2931 139.067C62.0396 139.098 61.1208 139.352 60.2336 139.637C59.3781 139.89 58.3958 140.207 58.1107 140.302C57.572 140.492 57.5403 137.514 57.572 80.7024C57.572 29.8792 57.6671 20.6271 58.0473 19.2329C58.3008 18.3141 58.9028 16.7298 59.4097 15.7476C59.9167 14.7336 60.7088 13.4345 61.2158 12.8325C61.7228 12.2622 62.8634 11.2483 63.7189 10.6145Z" fill="#E7FBF9"/>
<path fill-rule="evenodd" clip-rule="evenodd" d="M157.982 7.35098C158.933 7.41435 160.58 7.41435 161.626 7.35098C162.672 7.28761 161.88 7.25592 159.883 7.25592C157.887 7.25592 157.032 7.28761 157.982 7.35098ZM152.121 7.98468C153.166 8.04805 154.941 8.04805 156.081 7.98468C157.222 7.92131 156.366 7.88963 154.18 7.88963C151.994 7.88963 151.075 7.92131 152.121 7.98468ZM159.567 7.98468C160.359 8.04805 161.499 8.04805 162.101 7.98468C162.703 7.92131 162.07 7.85794 160.676 7.85794C159.281 7.85794 158.774 7.92131 159.567 7.98468ZM182.507 34.8538C182.507 36.438 182.538 37.1351 182.602 36.438C182.665 35.741 182.665 34.4736 182.602 33.5864C182.538 32.7309 182.507 33.3012 182.507 34.8538ZM182.507 41.6661C182.507 43.8524 182.538 44.7079 182.602 43.5672C182.665 42.4266 182.665 40.6522 182.602 39.6066C182.538 38.561 182.507 39.4798 182.507 41.6661ZM182.507 53.3897C182.507 56.0829 182.57 57.1602 182.602 55.7661C182.665 54.3719 182.665 52.1539 182.602 50.8548C182.57 49.5557 182.507 50.6964 182.507 53.3897ZM182.507 67.1727C182.507 70.6581 182.57 72.1473 182.602 70.4997C182.665 68.8521 182.665 66.0004 182.602 64.1627C182.57 62.3249 182.507 63.6874 182.507 67.1727ZM182.507 85.0749C182.507 86.7226 182.538 87.3879 182.602 86.5008C182.665 85.6453 182.665 84.2828 182.602 83.4907C182.538 82.6985 182.507 83.4273 182.507 85.0749ZM182.507 95.2142C182.507 99.1432 182.57 100.696 182.602 98.6996C182.665 96.7034 182.665 93.4715 182.602 91.5704C182.57 89.6693 182.507 91.2852 182.507 95.2142ZM182.507 116.285C182.507 122.02 182.57 124.46 182.602 121.671C182.665 118.883 182.665 114.194 182.602 111.215C182.57 108.237 182.507 110.55 182.507 116.285ZM182.507 129.751C182.507 131.399 182.538 132.064 182.602 131.177C182.665 130.321 182.665 128.959 182.602 128.167C182.538 127.375 182.507 128.104 182.507 129.751ZM182.475 135.138C182.475 136.437 182.538 137.007 182.602 136.405C182.665 135.803 182.665 134.726 182.602 134.029C182.538 133.332 182.475 133.839 182.475 135.138ZM182.507 140.366C182.507 141.95 182.538 142.647 182.602 141.95C182.665 141.253 182.665 139.985 182.602 139.098C182.538 138.243 182.507 138.781 182.507 140.366ZM63.4969 173.699C63.5286 174.903 63.687 175.631 63.8771 175.536C64.0672 175.441 64.2573 175.568 64.3207 175.79C64.4157 175.98 64.4474 175.156 64.4474 173.92C64.4157 172.146 64.3207 171.671 63.9405 171.671C63.5602 171.671 63.4652 172.083 63.4969 173.699Z" fill="#015056"/>
<path d="M100.854 133.015C100.759 134.948 100.759 134.948 100.728 132.698C100.728 131.43 100.791 130.385 100.918 130.385C101.013 130.385 101.235 130.638 101.425 130.923C101.646 131.335 101.646 131.399 101.33 131.24C101.044 131.082 100.918 131.525 100.854 133.015Z" fill="#43CCB9"/>
<path fill-rule="evenodd" clip-rule="evenodd" d="M119.739 1.77438C150.917 1.7427 169.263 1.86944 170.72 2.05955C171.988 2.24966 174.016 2.75663 175.251 3.16854C176.487 3.61213 178.23 4.43595 179.149 5.00628C180.099 5.57662 181.747 6.93908 182.824 8.07975C184.06 9.37885 185.232 11.0265 185.961 12.5157C186.595 13.8148 187.355 15.7476 187.608 16.7932C188.02 18.4725 188.084 26.8374 188.084 153.357L186.499 150.727C185.644 149.301 184.757 148.065 184.598 147.97C184.377 147.875 184.282 126.234 184.282 84.0293C184.282 28.6435 184.218 20.0568 183.806 18.5359C183.553 17.5853 182.887 15.8743 182.349 14.7337C181.81 13.593 180.606 11.882 179.687 10.9314C178.768 9.98087 177.184 8.74514 176.17 8.17481C175.124 7.60447 173.318 6.93908 172.083 6.6856C170.34 6.30538 167.52 6.17864 159.155 6.17864C153.293 6.17864 148.255 6.27369 148.002 6.40043C147.717 6.55886 147.21 7.57279 146.83 8.71346C146.354 10.2343 145.816 11.1215 144.802 12.1038C143.851 13.0227 142.869 13.6247 141.728 13.9415C140.334 14.3534 136.912 14.4168 119.644 14.4168C101.836 14.4168 99.0165 14.3534 97.7808 13.9415C96.9886 13.6564 95.9113 13.1177 95.4044 12.7058C94.8974 12.2939 94.137 11.3433 93.7567 10.5829C93.3765 9.82244 92.8695 8.55503 92.2358 6.33706L81.5262 6.24201C73.4782 6.21032 70.3096 6.27369 68.6937 6.62223C67.5213 6.84403 65.7153 7.44605 64.6697 7.95301C63.4973 8.52334 61.9764 9.66401 60.709 10.9314C59.4099 12.2305 58.2692 13.7514 57.6355 15.0505C57.0969 16.1912 56.3998 18.0289 56.1463 19.1696C55.7027 21.0073 55.6394 28.4534 55.6394 147.336L51.6787 153.99L51.8371 17.4269L52.5342 15.2089C52.9144 13.9732 53.7699 12.1988 54.4036 11.2483C55.0373 10.2977 56.3364 8.80851 57.2553 7.95301C58.2059 7.09751 59.5367 5.98852 60.2337 5.48156C60.9308 4.9746 62.5468 4.15078 63.7825 3.64381C65.0499 3.10516 67.2045 2.50314 68.5353 2.24966C70.5948 1.86944 79.2766 1.80607 119.707 1.77438H119.739ZM165.144 7.85795C166.348 7.85795 166.791 7.92132 166.094 7.9847C165.397 8.04807 164.383 8.04807 163.876 7.9847C163.338 7.92132 163.908 7.85795 165.144 7.85795Z" fill="#007F78"/>
<path d="M91.7604 125.759C92.3624 125.188 93.313 124.523 93.82 124.238C94.3586 123.953 94.8339 123.731 94.9289 123.731C95.024 123.731 94.5804 124.111 93.9784 124.586C93.3764 125.062 92.0139 126.234 90.9683 127.216C89.9227 128.199 88.7186 129.117 88.275 129.244C87.8315 129.371 85.8357 130.131 83.8397 130.892L83.8391 130.892C81.8429 131.684 79.7834 132.508 79.2447 132.73C78.7378 132.983 77.0268 133.68 75.4425 134.282C73.8899 134.916 71.2284 136.057 69.5807 136.88C67.9331 137.704 65.8102 138.877 64.8596 139.51C63.9091 140.144 62.8318 140.873 62.4515 141.126C62.0396 141.411 61.1841 142.108 60.5187 142.742C59.8217 143.376 58.9028 143.978 57.5403 144.295V142.489C57.5086 140.778 57.572 140.651 58.3958 140.302C58.8711 140.081 60.0117 139.7 60.8672 139.415L60.8673 139.415C61.7545 139.162 62.4832 139.003 62.5466 139.098C62.5783 139.162 64.3527 138.306 66.5073 137.197C68.6302 136.088 72.5275 134.282 75.1257 133.205C77.7555 132.128 80.9557 131.05 82.2548 130.797C83.5539 130.543 85.4234 129.973 86.3739 129.529C87.3245 129.086 88.6869 128.294 89.384 127.755C90.0811 127.216 91.1584 126.297 91.7604 125.759Z" fill="#ECFBFA"/>
<path d="M95.5626 126.424L97.4638 125.157C98.4143 124.555 99.2381 124.048 99.2381 124.048C99.2698 124.016 99.1431 124.365 99.0163 124.745C98.8579 125.125 98.6044 125.695 98.4777 126.012C98.3193 126.393 98.1292 126.456 97.8757 126.234C97.6539 126.076 97.2737 126.044 97.0835 126.171C96.8617 126.297 96.3865 126.424 96.0379 126.488C95.6894 126.551 95.4676 126.519 95.5626 126.424Z" fill="#ECFBFA"/>
<path d="M148.731 127.058C147.717 126.076 146.417 124.998 145.879 124.65C145.182 124.227 145.023 124.016 145.404 124.016C145.689 124.016 146.766 124.777 147.78 125.727C148.762 126.646 150.378 127.945 151.329 128.579C152.279 129.213 153.008 129.751 152.913 129.751C152.818 129.751 152.248 129.529 151.646 129.276C151.044 129.022 149.713 128.04 148.731 127.058Z" fill="#ECFBFA"/>
<path d="M140.904 126.171C140.904 125.695 140.778 125.093 140.651 124.808C140.556 124.555 140.587 124.333 140.746 124.333C140.904 124.333 141.633 124.745 142.393 125.284C143.122 125.822 143.724 126.329 143.724 126.393C143.724 126.488 143.439 126.424 143.091 126.234C142.742 126.076 142.172 125.917 141.823 125.917C141.475 125.917 141.126 126.171 141.063 126.488C140.999 126.804 140.936 126.646 140.904 126.171Z" fill="#ECFBFA"/>
<path d="M160.517 132.603C158.173 131.684 156.177 130.86 156.081 130.797C155.986 130.702 156.557 130.733 157.349 130.86C158.141 130.987 160.074 131.557 161.626 132.159C163.211 132.761 165.872 133.839 167.552 134.567C169.326 135.359 170.53 136.057 170.403 136.215C170.276 136.405 170.34 136.437 170.593 136.31C170.815 136.152 172.241 136.754 174.079 137.736C175.758 138.623 177.311 139.383 177.469 139.415C177.659 139.447 178.832 139.795 182.38 140.968V142.805C182.38 144.58 182.38 144.612 181.683 144.263C181.271 144.041 180.289 143.312 179.497 142.584C178.705 141.887 176.709 140.492 175.061 139.51C173.413 138.528 170.435 136.944 168.439 135.993C166.443 135.043 162.862 133.49 160.517 132.603Z" fill="#ECFBFA"/>
<path d="M97.9397 126.361C98.3516 126.678 98.4467 126.646 98.415 126.202C98.415 125.886 98.51 125.632 98.6685 125.632C98.7952 125.632 98.7952 125.949 98.7001 126.361C98.5734 126.741 98.5417 128.991 98.6051 131.335C98.6368 133.68 98.7952 136.817 98.8903 138.306C99.017 139.795 99.2705 142.299 99.524 143.851C99.7458 145.435 100.031 147.241 100.126 147.907C100.221 148.541 100.411 149.618 100.506 150.283C100.601 150.917 101.172 153.61 101.774 156.208C102.376 158.838 103.041 161.595 103.295 162.387C103.548 163.179 104.055 164.89 104.435 166.189C104.815 167.488 105.893 170.784 106.812 173.477C107.73 176.17 108.681 178.895 108.871 179.497C109.093 180.099 109.41 180.764 109.568 180.923C109.695 181.113 109.822 181.43 109.822 181.652C109.822 181.842 110.202 182.856 110.645 183.87C111.089 184.852 111.564 185.897 111.691 186.151C111.85 186.404 112.42 187.767 112.99 189.161C113.592 190.555 115.05 193.629 116.254 195.973C117.458 198.318 118.377 200.536 118.313 200.853C118.25 201.296 117.743 200.853 116.159 198.952C115.05 197.589 114.036 196.385 113.941 196.29C113.846 196.195 113.212 195.435 112.515 194.548L112.384 194.387C111.718 193.569 110.974 192.657 110.677 192.33C110.329 191.981 108.269 189.288 106.051 186.309C103.833 183.363 100.696 179.085 99.0804 176.804C96.8624 173.699 95.9435 172.083 95.3415 170.308C94.9296 169.009 94.1058 167.076 93.5671 166.031C92.9968 164.985 91.666 163.211 90.5887 162.07C89.5114 160.929 88.6242 159.884 88.5925 159.694C88.5925 159.535 88.9094 159.028 89.2896 158.585C89.7015 158.141 90.7788 156.905 91.666 155.796C92.8384 154.402 93.282 153.674 93.0919 153.325C92.9651 153.04 92.2997 152.501 91.6026 152.089C90.9056 151.709 88.9094 150.632 87.1667 149.713C85.424 148.794 83.9665 148.034 83.9348 148.002C83.9031 148.002 84.0616 146.83 84.3467 145.435C84.6002 144.041 85.2339 141.697 85.7726 140.207C86.2795 138.718 87.5152 136.152 88.5292 134.504C89.6698 132.603 91.2541 130.607 92.8067 129.054C94.1375 127.692 95.4683 126.583 95.7217 126.583C95.9752 126.583 96.2921 126.551 96.4188 126.488C96.5772 126.456 96.8624 126.297 97.0525 126.171C97.2743 126.044 97.6862 126.139 97.9397 126.361Z" fill="#FBFCFB"/>
<path d="M141.032 131.494C141.127 128.896 141.19 126.551 141.19 126.361C141.19 126.139 141.475 125.949 141.824 125.949C142.172 125.949 143.123 126.266 143.947 126.678C144.802 127.09 146.26 128.294 147.464 129.593C148.573 130.828 150.03 132.603 150.664 133.553C151.329 134.504 152.375 136.373 153.009 137.672C153.642 138.972 154.498 141.126 154.941 142.425C155.353 143.724 155.797 145.53 156.114 147.97L154.91 148.604C154.244 148.952 152.248 150.061 150.474 151.044C148.414 152.216 147.147 153.103 147.052 153.515C146.957 153.927 147.337 154.719 148.097 155.828C148.795 156.715 149.935 158.109 150.632 158.902C151.361 159.694 151.963 160.486 151.963 160.644C151.963 160.834 151.393 161.88 150.632 163.021C149.904 164.161 148.446 166.284 147.4 167.773C146.355 169.263 144.897 171.195 144.2 172.083C143.503 172.97 142.362 174.459 141.665 175.378C140.968 176.297 139.511 178.198 138.402 179.624C137.293 181.018 136.215 182.412 136.025 182.666C135.804 182.919 135.202 183.711 134.695 184.408C134.156 185.105 133.586 185.866 133.364 186.151C133.142 186.404 131.463 188.559 129.562 190.904C127.692 193.248 125.791 195.625 125.316 196.132C124.84 196.67 124.175 197.368 123.858 197.748C123.541 198.128 122.781 199.015 122.179 199.776C121.577 200.504 120.975 201.296 120.848 201.487C120.721 201.677 120.563 201.772 120.468 201.677C120.405 201.582 120.975 200.156 121.767 198.508C122.527 196.861 123.573 194.643 124.048 193.597C124.539 192.584 125.417 190.621 126.076 189.145L126.14 189.003C126.805 187.513 127.502 185.897 127.724 185.359C127.946 184.852 128.484 183.489 128.928 182.349C129.371 181.208 130.1 179.307 130.576 178.071C131.051 176.867 131.906 174.427 132.477 172.685C133.047 170.942 133.807 168.534 134.188 167.298C134.568 166.094 135.233 163.813 135.677 162.229C136.12 160.676 136.913 157.666 137.42 155.575C137.958 153.483 138.75 149.998 139.162 147.812C139.574 145.625 140.144 142.14 140.43 140.049C140.683 137.958 140.968 134.124 141.032 131.494Z" fill="#FBFCFB"/>
<path d="M83.2061 157.159C83.2061 156.652 83.3011 154.814 83.3962 153.135C83.5229 151.424 83.618 150.03 83.6496 150.03C83.6813 149.998 84.8854 150.663 86.3746 151.456C87.8638 152.279 89.4164 153.103 89.86 153.357C90.3036 153.61 90.6204 153.864 90.5887 153.959C90.5253 154.054 89.6065 155.226 88.5292 156.525C87.135 158.205 86.3746 158.87 86.0577 158.743C85.8042 158.616 85.0438 158.426 84.3784 158.331C83.3328 158.141 83.2061 158.014 83.2061 157.159Z" fill="#FBFCFB"/>
<path d="M28.8652 47.8447L30.9248 45.7218V45.6901C32.0338 44.5178 33.016 43.5672 33.0477 43.5672C33.1111 43.5672 33.1427 43.5989 33.1427 43.6306C33.1427 43.6939 32.1922 44.6445 28.8652 47.8447Z" fill="#20BBA7"/>
<path d="M138.211 130.765C138.211 130.67 138.338 130.321 138.465 130.036V130.005C138.591 129.719 138.845 129.466 139.003 129.466C139.162 129.466 139.288 129.624 139.288 129.783C139.288 129.941 139.13 130.1 138.972 130.1C138.813 130.1 138.686 130.29 138.75 130.48C138.781 130.702 138.972 130.987 139.13 131.114C139.32 131.272 139.288 131.462 139.035 131.589C138.686 131.779 138.655 132.381 138.781 133.965C138.908 135.296 138.845 136.183 138.655 136.278C138.496 136.373 138.401 137.007 138.496 137.704C138.591 138.433 138.528 138.972 138.338 138.972C138.148 138.972 138.116 139.383 138.211 139.985C138.338 140.619 138.274 141.126 138.053 141.253C137.831 141.411 137.799 141.855 137.958 142.457C138.116 143.154 138.053 143.407 137.799 143.407C137.525 143.407 137.44 143.724 137.546 144.358C137.641 144.897 137.577 145.309 137.387 145.309C137.229 145.309 137.134 145.657 137.229 146.101C137.324 146.544 137.229 146.893 137.07 146.893C136.88 146.893 136.849 147.273 137.007 147.843C137.165 148.54 137.102 148.794 136.849 148.794C136.563 148.794 136.5 149.047 136.659 149.649C136.785 150.188 136.754 150.473 136.595 150.347C136.405 150.22 136.31 150.473 136.373 150.885C136.405 151.297 136.278 151.646 136.12 151.646C135.961 151.646 135.866 151.931 135.961 152.279C136.056 152.628 135.961 152.913 135.803 152.913C135.613 152.913 135.581 153.262 135.708 153.769C135.898 154.497 135.835 154.592 135.486 154.339C135.138 154.085 135.074 154.18 135.264 154.878C135.391 155.416 135.359 155.765 135.169 155.765C135.011 155.765 134.916 155.987 135.011 156.24C135.106 156.493 135.011 156.715 134.852 156.715C134.694 156.715 134.599 157 134.694 157.349C134.789 157.698 134.694 158.046 134.536 158.141C134.377 158.236 134.282 158.521 134.377 158.775C134.472 159.028 134.377 159.25 134.219 159.25C134.06 159.25 133.965 159.535 134.06 159.884C134.155 160.232 134.06 160.517 133.902 160.517C133.743 160.517 133.648 160.803 133.743 161.151C133.839 161.5 133.743 161.785 133.585 161.785C133.427 161.785 133.332 162.007 133.427 162.26C133.522 162.514 133.427 162.735 133.268 162.735C133.078 162.735 133.046 163.021 133.173 163.433C133.332 163.971 133.3 164.098 133.015 163.908C132.761 163.749 132.698 163.876 132.793 164.32C132.888 164.668 132.793 164.953 132.634 164.953C132.476 164.953 132.381 165.175 132.476 165.429C132.571 165.682 132.476 165.904 132.318 165.904C132.159 165.904 132.064 166.189 132.159 166.538C132.254 166.886 132.159 167.171 132.001 167.171C131.842 167.171 131.747 167.393 131.842 167.647C131.937 167.9 131.842 168.122 131.684 168.122C131.525 168.122 131.43 168.344 131.525 168.597C131.621 168.851 131.525 169.073 131.367 169.073C131.209 169.073 131.114 169.294 131.209 169.548C131.304 169.801 131.209 170.023 131.05 170.023C130.892 170.023 130.797 170.245 130.892 170.498C130.987 170.752 130.892 171.037 130.733 171.132C130.575 171.227 130.512 171.544 130.638 171.829C130.828 172.273 130.797 172.336 130.417 172.083C130.068 171.829 130.036 171.893 130.195 172.463C130.321 172.875 130.29 173.192 130.1 173.192C129.91 173.192 129.878 173.445 130.005 173.73C130.195 174.174 130.163 174.237 129.783 173.984C129.434 173.73 129.403 173.794 129.561 174.364C129.688 174.776 129.656 175.093 129.466 175.093C129.308 175.093 129.212 175.251 129.308 175.41C129.403 175.568 129.308 175.726 129.149 175.726C128.991 175.726 128.896 175.948 128.991 176.202C129.086 176.455 128.991 176.677 128.832 176.677C128.674 176.677 128.579 176.899 128.674 177.152C128.769 177.406 128.674 177.628 128.515 177.628C128.357 177.628 128.262 177.849 128.357 178.103C128.452 178.356 128.357 178.578 128.199 178.578C128.04 178.578 127.945 178.8 128.04 179.053C128.135 179.307 128.04 179.529 127.882 179.529C127.723 179.529 127.628 179.687 127.723 179.846C127.818 180.004 127.723 180.162 127.565 180.162C127.406 180.162 127.311 180.384 127.406 180.638C127.501 180.891 127.406 181.113 127.248 181.113C127.058 181.113 127.026 181.366 127.153 181.652C127.343 182.095 127.311 182.159 126.931 181.905C126.551 181.652 126.519 181.715 126.709 182.127C126.836 182.444 126.804 182.697 126.614 182.697C126.456 182.697 126.361 182.856 126.456 183.014C126.551 183.172 126.456 183.331 126.297 183.331C126.139 183.331 126.044 183.553 126.139 183.806C126.234 184.06 126.139 184.281 125.981 184.281C125.822 184.281 125.727 184.44 125.822 184.598C125.917 184.757 125.822 184.915 125.664 184.915C125.505 184.915 125.41 185.074 125.505 185.232C125.6 185.39 125.505 185.549 125.347 185.549C125.157 185.549 125.125 185.802 125.252 186.087C125.442 186.531 125.41 186.594 125.03 186.341C124.65 186.087 124.618 186.151 124.808 186.563C124.935 186.88 124.903 187.133 124.713 187.133C124.555 187.133 124.46 187.292 124.555 187.45C124.65 187.608 124.555 187.767 124.396 187.767C124.206 187.767 124.175 188.02 124.301 188.305C124.46 188.717 124.428 188.812 124.143 188.622C123.889 188.474 123.815 188.559 123.921 188.876C124.016 189.129 123.921 189.351 123.763 189.351C123.604 189.351 123.509 189.51 123.604 189.668C123.699 189.826 123.604 189.985 123.446 189.985C123.287 189.985 123.192 190.143 123.287 190.302C123.382 190.46 123.287 190.618 123.129 190.618C122.97 190.618 122.875 190.777 122.97 190.935C123.066 191.094 122.97 191.284 122.812 191.316C122.622 191.379 122.432 191.727 122.4 192.139C122.368 192.52 122.242 192.836 122.115 192.836C121.957 192.836 121.925 192.995 122.02 193.153C122.115 193.312 122.02 193.47 121.861 193.47C121.703 193.47 121.608 193.629 121.703 193.787C121.798 193.945 121.703 194.104 121.545 194.104C121.386 194.104 121.291 194.262 121.386 194.421C121.481 194.579 121.386 194.738 121.228 194.738C121.069 194.738 120.974 194.896 121.069 195.054C121.164 195.213 121.069 195.371 120.911 195.371C120.752 195.371 120.657 195.53 120.752 195.688C120.848 195.847 120.752 196.005 120.594 196.005C120.436 196.005 120.341 196.163 120.436 196.322C120.531 196.48 120.436 196.639 120.277 196.639C120.119 196.639 120.024 196.797 120.119 196.956C120.214 197.114 120.087 197.272 119.897 197.272C119.675 197.304 119.263 196.86 119.01 196.322C118.756 195.783 118.439 195.34 118.313 195.371C118.154 195.371 118.123 195.213 118.218 195.054C118.313 194.896 118.249 194.738 118.059 194.738C117.901 194.738 117.806 194.579 117.901 194.421C117.996 194.262 117.933 194.104 117.742 194.104C117.584 194.104 117.489 193.945 117.584 193.787C117.679 193.629 117.616 193.47 117.426 193.47C117.267 193.47 117.172 193.312 117.267 193.153C117.362 192.995 117.299 192.836 117.109 192.836C116.95 192.836 116.855 192.678 116.95 192.52C117.045 192.361 116.982 192.203 116.792 192.203C116.633 192.203 116.538 192.044 116.633 191.886C116.728 191.727 116.665 191.569 116.475 191.569C116.317 191.569 116.222 191.411 116.317 191.252C116.412 191.094 116.348 190.935 116.158 190.935C116 190.935 115.905 190.777 116 190.618C116.095 190.46 116.031 190.302 115.841 190.302C115.651 190.302 115.619 190.048 115.746 189.731C115.936 189.319 115.905 189.256 115.524 189.51C115.144 189.763 115.113 189.7 115.303 189.256C115.429 188.971 115.398 188.717 115.208 188.717C115.049 188.717 114.954 188.559 115.049 188.401C115.144 188.242 115.081 188.084 114.891 188.084C114.732 188.084 114.637 187.925 114.732 187.767C114.827 187.608 114.764 187.45 114.574 187.45C114.415 187.45 114.32 187.292 114.415 187.133C114.51 186.975 114.447 186.816 114.257 186.816C114.099 186.816 114.004 186.658 114.099 186.499C114.194 186.341 114.13 186.183 113.94 186.183C113.75 186.183 113.718 185.929 113.845 185.612C114.035 185.2 114.004 185.137 113.623 185.39C113.243 185.644 113.211 185.581 113.402 185.137C113.528 184.852 113.497 184.598 113.306 184.598C113.148 184.598 113.053 184.44 113.148 184.281C113.243 184.123 113.18 183.965 112.99 183.965C112.831 183.965 112.736 183.743 112.831 183.489C112.926 183.236 112.863 183.014 112.673 183.014C112.514 183.014 112.419 182.856 112.514 182.697C112.609 182.539 112.546 182.38 112.356 182.38C112.166 182.38 112.134 182.127 112.261 181.81C112.451 181.398 112.419 181.335 112.039 181.588C111.659 181.842 111.627 181.778 111.817 181.335C111.944 181.05 111.912 180.796 111.722 180.796C111.564 180.796 111.469 180.638 111.564 180.479C111.659 180.321 111.595 180.099 111.405 180.004C111.247 179.909 111.152 179.687 111.247 179.529C111.342 179.37 111.279 179.212 111.088 179.212C110.93 179.212 110.835 178.99 110.93 178.737C111.025 178.483 110.962 178.261 110.772 178.261C110.582 178.261 110.55 178.008 110.677 177.691C110.867 177.279 110.835 177.216 110.455 177.469C110.075 177.723 110.043 177.659 110.233 177.216C110.36 176.93 110.328 176.677 110.138 176.677C109.98 176.677 109.884 176.455 109.98 176.202C110.075 175.948 110.011 175.726 109.821 175.726C109.663 175.726 109.568 175.568 109.663 175.41C109.758 175.251 109.694 175.093 109.504 175.093C109.346 175.093 109.251 174.871 109.346 174.617C109.441 174.364 109.377 174.142 109.187 174.142C109.029 174.142 108.934 173.92 109.029 173.667C109.124 173.413 109.061 173.192 108.871 173.192C108.712 173.192 108.617 172.97 108.712 172.716C108.807 172.463 108.744 172.241 108.554 172.241C108.395 172.241 108.3 172.019 108.395 171.766C108.49 171.512 108.427 171.29 108.237 171.29C108.078 171.29 107.983 171.069 108.078 170.815C108.173 170.562 108.11 170.34 107.92 170.34C107.762 170.34 107.666 170.118 107.762 169.865C107.857 169.611 107.793 169.389 107.603 169.389C107.445 169.389 107.35 169.104 107.445 168.756C107.54 168.407 107.476 168.122 107.286 168.122C107.128 168.122 107.033 167.9 107.128 167.647C107.223 167.393 107.16 167.171 106.969 167.171C106.811 167.171 106.716 166.95 106.811 166.696C106.906 166.443 106.843 166.221 106.653 166.221C106.494 166.221 106.399 165.936 106.494 165.587C106.589 165.239 106.526 164.953 106.336 164.953C106.177 164.953 106.082 164.732 106.177 164.478C106.272 164.225 106.209 164.003 106.019 164.003C105.86 164.003 105.765 163.718 105.86 163.369C105.955 163.021 105.892 162.735 105.702 162.735C105.544 162.735 105.449 162.514 105.544 162.26C105.639 162.007 105.575 161.785 105.385 161.785C105.227 161.785 105.132 161.5 105.227 161.151C105.322 160.803 105.258 160.517 105.068 160.517C104.91 160.517 104.815 160.232 104.91 159.884C105.005 159.535 104.942 159.25 104.751 159.25C104.593 159.25 104.498 158.965 104.593 158.616C104.688 158.268 104.625 157.983 104.435 157.983C104.276 157.983 104.181 157.698 104.276 157.349C104.371 157 104.308 156.715 104.118 156.715C103.959 156.715 103.864 156.43 103.959 156.082C104.054 155.733 103.991 155.448 103.801 155.448C103.642 155.448 103.547 155.099 103.642 154.656C103.738 154.212 103.674 153.864 103.484 153.864C103.294 153.864 103.262 153.515 103.389 152.976C103.579 152.279 103.516 152.184 103.167 152.438C102.819 152.691 102.787 152.564 103.009 151.646C103.231 150.727 103.199 150.6 102.85 150.853C102.47 151.107 102.438 150.98 102.629 150.125C102.755 149.523 102.724 149.111 102.533 149.111C102.343 149.111 102.28 148.699 102.375 148.16C102.47 147.622 102.407 147.21 102.217 147.21C102.058 147.21 101.963 146.925 102.058 146.576C102.153 146.227 102.09 145.879 101.9 145.784C101.741 145.689 101.646 145.118 101.741 144.516C101.836 143.819 101.773 143.471 101.583 143.566C101.393 143.661 101.329 143.186 101.488 142.203C101.646 141.094 101.615 140.778 101.329 140.936C101.044 141.126 101.013 140.778 101.171 139.51C101.329 138.274 101.298 137.926 101.013 138.084C100.727 138.274 100.664 137.419 100.791 130.828L101.678 131.399C102.153 131.747 102.629 132.191 102.755 132.381C102.945 132.698 102.882 132.698 102.533 132.508C102.28 132.349 102.565 132.761 103.167 133.395C103.769 134.029 104.371 134.536 104.53 134.536C104.656 134.536 105.575 135.201 106.589 135.993C107.571 136.817 108.49 137.641 108.617 137.831C108.744 138.021 108.871 138.084 108.871 137.926C108.871 137.799 109.758 138.116 110.867 138.655C111.944 139.162 113.75 139.827 114.891 140.112C116.031 140.397 117.172 140.714 117.426 140.809C117.679 140.904 118.82 140.936 119.96 140.904C121.101 140.873 122.812 140.683 123.763 140.524C124.713 140.334 126.234 139.89 127.09 139.51C127.977 139.162 129.434 138.369 130.353 137.799C131.24 137.229 133.395 135.454 135.106 133.839C136.785 132.254 138.179 130.86 138.211 130.765Z" fill="#20BBA7"/>
<path d="M155.448 176.233C155.796 176.328 156.082 176.233 156.082 176.075C156.082 175.917 156.652 175.758 157.349 175.758C158.046 175.758 158.68 175.917 158.775 176.075C158.87 176.233 159.218 176.328 159.567 176.233C159.915 176.138 160.201 176.233 160.201 176.392C160.201 176.55 160.359 176.645 160.518 176.55C160.676 176.455 160.834 176.55 160.834 176.709C160.834 176.867 160.993 176.962 161.151 176.867C161.31 176.772 161.468 176.867 161.468 177.026C161.468 177.184 161.626 177.279 161.785 177.184C161.943 177.089 162.165 177.247 162.26 177.501C162.355 177.786 162.577 177.881 162.799 177.723C163.073 177.575 163.126 177.628 162.957 177.881C162.831 178.134 163.021 178.483 163.528 178.768C163.971 179.022 164.256 179.402 164.161 179.56C164.066 179.719 164.161 179.877 164.32 179.877C164.478 179.877 164.573 180.036 164.478 180.194C164.383 180.352 164.478 180.511 164.637 180.511C164.795 180.511 164.89 180.669 164.795 180.828C164.7 180.986 164.795 181.145 164.953 181.145C165.112 181.145 165.207 181.43 165.112 181.778C165.017 182.127 165.048 182.412 165.207 182.412C165.334 182.412 165.46 183.109 165.524 183.996C165.555 184.883 165.46 185.581 165.27 185.581C165.112 185.581 165.017 185.866 165.112 186.214C165.207 186.563 165.112 186.848 164.953 186.848C164.795 186.848 164.7 187.07 164.795 187.323C164.901 187.64 164.827 187.714 164.573 187.545C164.288 187.387 164.256 187.482 164.415 187.862C164.542 188.179 164.542 188.369 164.415 188.305C164.256 188.21 163.971 188.432 163.781 188.781C163.464 189.256 163.464 189.351 163.781 189.193C163.971 189.066 163.813 189.351 163.369 189.763C162.926 190.207 162.482 190.523 162.355 190.46C162.197 190.397 162.038 190.555 161.943 190.809C161.848 191.062 161.468 191.379 161.088 191.506C160.676 191.632 160.264 191.696 160.137 191.664C159.979 191.632 159.884 191.759 159.884 191.918C159.884 192.076 159.662 192.171 159.409 192.076C159.155 191.981 158.87 192.076 158.775 192.234C158.68 192.393 158.109 192.551 157.507 192.551C156.905 192.551 156.335 192.393 156.24 192.234C156.145 192.076 155.796 191.981 155.448 192.076C155.099 192.171 154.814 192.076 154.814 191.918C154.814 191.759 154.624 191.696 154.434 191.791C154.212 191.886 153.927 191.727 153.8 191.474C153.642 191.189 153.293 190.967 153.008 190.967C152.691 190.967 152.026 190.523 151.487 189.953C150.98 189.383 150.758 189.066 151.012 189.193C151.265 189.319 151.202 189.193 150.854 188.907C150.505 188.622 150.251 188.242 150.315 188.084C150.347 187.925 150.22 187.799 150.061 187.799C149.903 187.799 149.808 187.577 149.903 187.323C149.998 187.07 149.903 186.848 149.745 186.848C149.554 186.848 149.523 186.499 149.649 185.961C149.808 185.327 149.776 185.169 149.491 185.327C149.206 185.517 149.111 185.2 149.111 184.155C149.111 183.299 149.238 182.792 149.428 182.887C149.618 182.982 149.681 182.729 149.586 182.254C149.491 181.81 149.586 181.461 149.745 181.461C149.903 181.461 149.998 181.303 149.903 181.145C149.808 180.986 149.871 180.796 150.03 180.733C150.188 180.701 150.378 180.448 150.442 180.194C150.505 179.941 150.822 179.465 151.17 179.148C151.519 178.832 151.614 178.641 151.392 178.768C151.139 178.863 150.949 178.927 150.98 178.863C150.98 178.8 151.392 178.42 151.836 177.976C152.311 177.532 152.596 177.406 152.469 177.659C152.343 177.913 152.533 177.786 152.913 177.342C153.293 176.899 153.515 176.74 153.452 176.93C153.357 177.184 153.452 177.279 153.737 177.184C153.99 177.089 154.085 176.867 153.959 176.645C153.769 176.36 153.864 176.328 154.275 176.487C154.561 176.614 154.814 176.582 154.814 176.392C154.814 176.233 155.099 176.138 155.448 176.233Z" fill="#20BBA7"/>
<path d="M134.694 49.7776C136.278 49.0171 138.528 47.6864 139.7 46.7992L141.887 45.2149L142.077 47.623C142.235 49.3974 142.552 50.443 143.122 51.4886C143.598 52.2807 144.548 53.4531 145.277 54.1185C145.974 54.7522 146.671 55.2908 146.829 55.2908C146.956 55.2908 147.305 58.6811 147.622 62.8002C147.907 66.951 148.16 72.4959 148.16 75.0941C148.129 79.0231 148.224 79.9103 148.636 80.2588C148.889 80.4489 149.269 80.5757 149.428 80.4806C149.618 80.3855 150.03 79.4984 150.41 78.5161C150.758 77.5022 151.392 76.0763 151.836 75.3476C152.248 74.5871 152.913 73.7633 153.325 73.5098C153.705 73.2564 154.466 73.0346 154.973 73.0346C155.67 73.0662 156.272 73.4148 157.222 74.397C158.141 75.3159 158.711 76.2665 159.06 77.4705C159.345 78.4211 159.567 80.1954 159.567 81.4312C159.567 82.6669 159.345 84.4729 159.092 85.4869C158.838 86.4691 158.3 87.9583 157.919 88.8138C157.539 89.6376 156.493 91.0318 155.606 91.919C154.592 92.9646 153.452 93.7567 152.438 94.1053C151.107 94.6122 150.632 94.6439 149.586 94.3271C148.889 94.1369 148.224 94.0736 148.097 94.2003C147.97 94.3271 147.653 95.5628 147.368 96.9569C147.083 98.3511 146.418 100.569 145.911 101.868C145.404 103.167 144.453 105.163 143.788 106.304C143.154 107.445 141.792 109.346 140.809 110.582C139.827 111.817 138.116 113.56 137.007 114.511C135.93 115.461 134.219 116.729 133.268 117.331C132.318 117.964 130.733 118.788 129.783 119.232C128.832 119.644 126.963 120.277 125.664 120.626C124.048 121.038 122.242 121.228 119.96 121.228C117.616 121.228 115.905 121.038 114.099 120.562C112.704 120.214 110.487 119.422 109.187 118.788C107.888 118.154 105.892 116.982 104.751 116.19C103.611 115.366 101.741 113.75 100.569 112.578C99.365 111.374 97.8758 109.599 97.1787 108.617C96.5133 107.603 95.436 105.734 94.8023 104.498C94.1686 103.231 93.3131 100.949 92.9012 99.4284C92.4893 97.8758 92.014 96.0697 91.8556 95.3727C91.6338 94.3271 91.4753 94.1369 90.9684 94.232C90.6198 94.2954 89.701 94.3587 88.9088 94.3587C88.1167 94.3587 87.0711 94.1369 86.5324 93.8835C86.0255 93.5983 84.9482 92.7745 84.1877 92.014C83.4273 91.2536 82.4134 89.7961 81.9064 88.8138C81.3994 87.7999 80.7657 86.0889 80.4806 85.0116C80.1003 83.5541 80.0053 82.3183 80.132 80.4806C80.2588 78.7062 80.5756 77.4388 81.146 76.2981C81.5895 75.3793 82.4134 74.2703 82.9837 73.8267C83.5223 73.3831 84.568 72.9395 85.265 72.8444C86.2473 72.686 86.6592 72.7811 87.0711 73.2247C87.3879 73.5732 87.99 75.2525 88.4336 76.9952C88.8772 78.7379 89.3208 80.2905 89.4792 80.4172C89.6059 80.5756 90.0178 80.6073 90.4297 80.5123C91.1268 80.3222 91.1268 80.2905 91.1268 73.8267C91.1268 70.2463 91.2852 65.1449 91.8239 57.6672L93.5666 56.0829C94.7284 55.0268 95.6367 53.8122 96.2915 52.4391C97.0203 50.9499 97.3054 49.841 97.3688 48.4151C97.4322 47.3061 97.5589 46.4189 97.7173 46.4189C97.8441 46.4189 98.5095 46.7041 99.2066 47.0526C99.9036 47.3695 101.329 47.7814 102.375 47.9715C103.421 48.1299 104.91 48.1933 105.702 48.1299C106.494 48.0349 108.015 47.8448 111.089 47.3695L112.926 48.9855C113.972 49.936 115.461 50.8549 116.475 51.2034C117.426 51.552 118.946 51.9955 119.802 52.1857C120.689 52.3758 122.875 52.4391 124.713 52.3441C126.551 52.249 128.896 51.9639 129.941 51.647C130.987 51.3618 133.141 50.538 134.694 49.7776Z" fill="#D79066"/>
<path d="M101.615 128.008L101.805 122.4L102.027 116.792L104.245 118.915C105.48 120.087 107.191 121.576 108.047 122.178C108.934 122.812 110.487 123.763 111.532 124.27C112.578 124.808 114.289 125.505 115.334 125.822C116.633 126.202 118.281 126.393 120.404 126.393C122.527 126.393 124.206 126.202 125.474 125.822C126.519 125.505 128.167 124.808 129.117 124.238C130.1 123.699 131.716 122.559 132.761 121.703C133.807 120.848 135.423 119.422 137.958 116.919L138.116 119.612C138.211 121.069 138.338 123.319 138.401 124.555C138.465 126.709 138.401 126.899 137.356 128.357C136.754 129.181 135.201 130.987 133.87 132.318C132.571 133.648 130.575 135.328 129.434 136.057C128.325 136.785 126.614 137.672 125.632 138.021C124.681 138.37 122.749 138.75 121.355 138.845C119.517 138.972 118.186 138.877 116.443 138.465C115.144 138.179 112.926 137.387 111.532 136.722C110.138 136.088 108.142 134.853 107.096 133.965C106.051 133.11 104.403 131.399 101.615 128.008Z" fill="#D79066"/>
<path d="M8.42925 287.48C7.13015 287.512 5.9578 287.449 5.83105 287.322C5.70431 287.163 6.78161 287.132 10.8056 287.385L8.42925 287.48Z" fill="#015056"/>
<path d="M64.3854 338.81C64.2904 338.145 63.8784 337.321 63.4665 336.973C63.0863 336.624 62.9596 336.339 63.1497 336.339C63.3715 336.339 63.8468 336.814 64.1953 337.385C64.5438 337.923 64.829 338.747 64.829 339.191C64.829 339.634 64.7023 340.458 64.5121 341.028C64.3537 341.567 63.9101 342.201 63.5616 342.359C63.2131 342.549 62.8328 342.676 62.6744 342.676C62.5477 342.676 62.7695 342.454 63.1497 342.201C63.5616 341.947 64.0369 341.345 64.227 340.87C64.3854 340.363 64.4805 339.444 64.3854 338.81Z" fill="#015056"/>
<path d="M36.5658 358.994C36.6291 357.79 36.5024 357.22 35.9954 356.554C35.6152 356.047 35.4885 355.667 35.6469 355.667C35.837 355.667 36.2172 355.984 36.4707 356.396C36.7242 356.776 36.9777 357.727 36.9777 358.519C37.0093 359.311 36.8509 360.293 36.6291 360.737C36.4073 361.18 36.1538 361.339 36.0905 361.149C36.0271 360.927 35.8053 360.832 35.5835 360.958C35.3617 361.053 35.33 361.022 35.4568 360.863C35.6152 360.705 35.9004 360.578 36.0905 360.578C36.3123 360.578 36.5024 359.944 36.5658 358.994Z" fill="#015056"/>
<path d="M52.2816 356.934C52.4718 356.586 52.3767 356.332 51.9648 356.047C51.4261 355.699 51.4261 355.667 51.9014 355.667C52.2183 355.667 52.6936 356.079 52.947 356.618C53.2005 357.156 53.4223 358.107 53.4223 358.772C53.4223 359.406 53.2639 360.166 53.0738 360.42C52.852 360.768 52.8203 360.578 52.9787 359.786C53.0738 359.184 53.1055 358.297 52.9787 357.822C52.852 357.23 52.6619 357.019 52.4084 357.188C52.1232 357.346 52.0915 357.283 52.2816 356.934Z" fill="#015056"/>
<path d="M109.441 8.55499C109.409 8.17476 109.568 7.73117 109.821 7.50937C110.138 7.22421 112.958 7.12915 130.416 7.12915L130.892 7.85791C131.145 8.23813 131.367 8.65004 131.367 8.80847C131.367 8.93521 131.145 9.25206 130.86 9.50554C130.448 9.91745 128.832 9.98082 120.341 9.98082C112.641 9.98082 110.201 9.88577 109.884 9.6006C109.663 9.3788 109.472 8.90352 109.441 8.55499Z" fill="#003A44"/>
<path d="M99.9986 62.515C100.791 62.0397 102.217 61.4377 103.167 61.1525C104.276 60.8674 105.797 60.7089 107.445 60.7723C109.092 60.8674 110.423 61.0891 111.247 61.5011C112.007 61.8496 112.673 62.4833 112.958 63.0536C113.18 63.5606 113.275 64.321 113.18 64.733C113.085 65.1132 112.673 65.6518 112.261 65.9053C111.69 66.3172 111.152 66.3489 109.029 66.0637C107.286 65.8419 105.765 65.8419 104.181 66.0637C102.945 66.2222 101.139 66.7291 100.22 67.1093C99.3332 67.5213 98.2876 67.8064 97.939 67.7747C97.5905 67.7114 97.1152 67.4262 96.8934 67.1093C96.6716 66.7925 96.5132 66.2222 96.5132 65.8419C96.5132 65.43 96.9568 64.733 97.5271 64.226C98.0975 63.7507 99.2064 62.9586 99.9986 62.515Z" fill="#003A44"/>
<path d="M127.692 62.0397C128.262 61.5011 129.086 60.9624 129.498 60.899C129.909 60.8357 131.082 60.7406 132.096 60.7089C133.078 60.7089 134.662 60.8357 135.581 61.0258C136.468 61.2159 138.084 61.8179 139.098 62.3882C140.112 62.9269 141.443 63.8458 142.045 64.3844C142.615 64.9548 143.091 65.6835 143.091 65.9687C143.091 66.2855 142.837 66.8876 142.552 67.2995C142.172 67.8064 141.791 67.9965 141.348 67.8698C140.999 67.7747 139.637 67.3311 138.338 66.8559C136.278 66.0954 135.549 66.0004 132.951 66.0637C131.304 66.0954 129.434 66.1588 128.832 66.1588C128.04 66.1588 127.565 65.937 127.153 65.3983C126.836 64.9864 126.614 64.2894 126.614 63.8458C126.614 63.4022 127.089 62.6417 127.692 62.0397Z" fill="#003A44"/>
<path d="M103.674 75.3475C104.023 74.8722 104.688 74.2702 105.1 74.0801C105.512 73.8583 106.146 73.7633 106.494 73.8583C106.843 73.9851 107.381 74.3019 107.73 74.5871C108.047 74.8722 108.522 75.5376 108.775 76.0446C109.092 76.6783 109.219 77.5655 109.124 78.7378C109.061 79.8468 108.744 80.8607 108.3 81.4945C107.793 82.2549 107.286 82.6034 106.431 82.7302C105.607 82.8569 105.005 82.7302 104.53 82.4133C104.118 82.1282 103.579 81.3677 103.294 80.7023C102.977 79.9736 102.819 78.9279 102.882 77.8823C102.977 76.8684 103.262 75.9179 103.674 75.3475Z" fill="#003A44"/>
<path d="M130.353 76.5832C130.575 75.7594 131.114 74.9356 131.716 74.4603C132.254 74.0167 132.888 73.6682 133.141 73.6682C133.395 73.6682 133.965 73.8583 134.472 74.1118C134.947 74.3336 135.581 75.0623 135.898 75.6961C136.183 76.3298 136.437 77.4704 136.437 78.2626C136.437 79.0547 136.247 80.1637 136.025 80.7023C135.803 81.2727 135.264 82.0014 134.821 82.3183C134.409 82.6034 133.743 82.8569 133.363 82.8569C132.951 82.8569 132.191 82.5084 131.684 82.0648C131.018 81.4945 130.638 80.7974 130.353 79.5933C130.068 78.3259 130.068 77.6289 130.353 76.5832Z" fill="#003A44"/>
<path d="M117.362 76.5199C117.33 76.2347 117.489 75.8545 117.742 75.6327C117.996 75.4109 118.376 75.2525 118.598 75.2525C118.82 75.2525 119.041 75.4426 119.041 75.6327C119.073 75.8545 119.073 76.2664 119.073 76.5199C119.073 76.7734 118.82 78.1358 118.534 79.53C118.249 80.9241 117.679 83.4273 117.267 85.0749C116.823 86.7225 116.19 89.0672 115.271 92.5209L115.968 93.0913C116.316 93.3764 117.14 93.8517 117.742 94.1369C118.471 94.4537 119.39 94.5805 120.436 94.4854C121.323 94.422 122.527 94.1052 123.129 93.7883C123.889 93.4398 124.333 93.3764 124.555 93.5982C124.713 93.7883 124.776 94.1369 124.65 94.422C124.491 94.6755 123.731 95.2142 122.907 95.5627C122.052 95.9429 120.816 96.2915 120.119 96.3232C119.422 96.3548 118.281 96.1964 117.584 95.9746C116.887 95.7211 115.81 95.1825 115.208 94.7706C114.605 94.327 113.908 93.6299 113.718 93.1863C113.37 92.4892 113.433 91.9823 114.099 89.7326C114.51 88.3068 115.461 84.8531 116.158 82.0648C116.855 79.2765 117.394 76.7734 117.362 76.5199Z" fill="#003A44"/>
<path d="M83.6807 80.0052C83.5856 79.8468 83.5856 79.4666 83.6807 79.2131C83.744 78.9596 83.9975 78.7378 84.2193 78.7378C84.4411 78.7378 85.2649 79.1497 86.0571 79.6567C86.8492 80.1637 87.7998 81.1459 88.1483 81.8113C88.5285 82.4767 88.9404 83.4589 89.0355 83.9659C89.1622 84.4729 89.3206 85.4234 89.384 86.0254C89.4474 86.6275 89.6058 87.7681 89.7009 88.5603C89.8593 89.6376 89.7959 90.1128 89.384 90.4614C88.9404 90.8733 88.8454 90.8733 88.4651 90.4614C88.2117 90.1762 87.9265 88.8138 87.7998 87.2929C87.673 85.5185 87.3562 84.1243 86.9126 83.2055C86.5007 82.35 85.7402 81.4945 85.0431 81.0509C84.3777 80.639 83.7757 80.1637 83.6807 80.0052Z" fill="#003A44"/>
<path d="M152.374 80.8924C152.913 80.227 153.832 79.4666 154.339 79.2131C154.846 78.9596 155.479 78.7378 155.701 78.7378C155.891 78.7378 156.177 78.9913 156.272 79.2765C156.367 79.625 156.177 80.0369 155.796 80.3221C155.448 80.5756 154.782 81.0826 154.275 81.4311C153.8 81.7796 153.166 82.6351 152.881 83.3322C152.596 84.0293 152.248 85.8036 152.153 87.2929C152.026 88.7821 151.867 90.0812 151.772 90.2079C151.709 90.3663 151.36 90.4614 151.012 90.4614C150.663 90.4614 150.346 90.2713 150.346 90.0495C150.315 89.8594 150.283 89.4475 150.283 89.194C150.283 88.9405 150.378 87.8632 150.473 86.8176C150.568 85.772 150.79 84.2828 150.98 83.4906C151.17 82.6985 151.804 81.5261 152.374 80.8924Z" fill="#003A44"/>
<path d="M107.128 100.347C107.033 100.157 107.033 99.8085 107.128 99.6501C107.255 99.4917 107.476 99.3333 107.698 99.3333C107.92 99.3333 108.87 99.8719 109.821 100.506C110.772 101.139 112.546 101.995 113.782 102.438C115.017 102.85 116.982 103.262 118.218 103.357C119.453 103.452 121.418 103.357 122.654 103.167C123.889 102.945 125.79 102.375 126.931 101.9C128.072 101.424 129.593 100.632 130.353 100.189C131.399 99.5234 131.747 99.4283 132.001 99.7135C132.191 99.9353 132.254 100.347 132.159 100.601C132.064 100.854 131.684 101.266 131.272 101.52C130.892 101.773 129.498 102.502 128.198 103.167C126.899 103.801 124.713 104.561 123.382 104.846C122.02 105.132 120.245 105.353 119.422 105.353C118.566 105.322 116.982 105.132 115.841 104.878C114.701 104.625 112.704 103.896 111.405 103.262C110.106 102.597 108.649 101.773 108.142 101.424C107.666 101.044 107.191 100.569 107.128 100.347Z" fill="#003A44"/>
<path d="M154.212 182.095C154.624 181.525 155.384 180.828 155.891 180.574C156.462 180.321 157.349 180.194 157.983 180.289C158.585 180.352 159.44 180.701 159.884 181.018C160.327 181.366 160.866 182.159 161.088 182.856C161.405 183.774 161.436 184.376 161.183 185.2C161.024 185.802 160.486 186.658 160.042 187.101C159.345 187.735 158.87 187.894 157.476 187.894C156.018 187.894 155.638 187.767 154.814 186.943C154.085 186.246 153.8 185.612 153.673 184.567C153.547 183.426 153.673 182.919 154.212 182.095Z" fill="#003A44"/>
<path d="M155.384 184.091C155.353 183.616 155.638 183.077 156.081 182.666C156.493 182.317 157.159 182.032 157.571 182.032C157.982 182.032 158.299 182.19 158.299 182.349C158.299 182.507 158.458 182.602 158.616 182.507C158.775 182.412 159.06 182.539 159.186 182.729C159.313 182.951 159.472 183.584 159.503 184.091C159.598 184.82 159.377 185.232 158.711 185.771C158.236 186.151 157.634 186.468 157.444 186.468C157.222 186.468 157.032 186.309 157.032 186.151C157.032 185.993 156.937 185.897 156.81 185.993C156.652 186.056 156.303 185.834 156.018 185.517C155.701 185.169 155.416 184.535 155.384 184.091Z" fill="#007F78"/>
</svg>
